<svg xmlns="http://www.w3.org/2000/svg" xmlns:xlink="http://www.w3.org/1999/xlink" width="725" zoomAndPan="magnify" viewBox="0 0 543.75 119.999999" height="160" preserveAspectRatio="xMidYMid meet" version="1.0"><defs><g/><clipPath id="8527418dd1"><path d="M 4.339844 17.980469 L 243.636719 17.980469 L 243.636719 103.421875 L 4.339844 103.421875 Z M 4.339844 17.980469 " clip-rule="nonzero"/></clipPath><clipPath id="ce16d2ef9e"><path d="M 61.089844 17.980469 L 237.347656 17.980469 C 239.496094 17.980469 241.480469 19.132812 242.546875 21 C 243.609375 22.867188 243.589844 25.164062 242.496094 27.011719 L 202.59375 94.390625 C 199.28125 99.988281 193.257812 103.421875 186.753906 103.421875 L 10.496094 103.421875 C 8.347656 103.421875 6.363281 102.265625 5.296875 100.398438 C 4.234375 98.53125 4.253906 96.238281 5.347656 94.390625 L 45.246094 27.011719 C 48.5625 21.414062 54.585938 17.980469 61.089844 17.980469 Z M 61.089844 17.980469 " clip-rule="nonzero"/></clipPath><clipPath id="1a520e8c71"><path d="M 42 2 L 67 2 L 67 45 L 42 45 Z M 42 2 " clip-rule="nonzero"/></clipPath><clipPath id="04db178837"><path d="M 40.214844 4.664062 L 53.734375 0 L 68.746094 43.511719 L 55.226562 48.175781 Z M 40.214844 4.664062 " clip-rule="nonzero"/></clipPath><clipPath id="e091f42238"><path d="M 55.253906 48.253906 L 68.773438 43.589844 L 53.761719 0.0820312 L 40.242188 4.742188 Z M 55.253906 48.253906 " clip-rule="nonzero"/></clipPath><clipPath id="7fb073dc14"><path d="M 47 23 L 53 23 L 53 35 L 47 35 Z M 47 23 " clip-rule="nonzero"/></clipPath><clipPath id="9a475864db"><path d="M 47.199219 23.726562 L 49.328125 23.046875 L 52.789062 33.875 L 50.660156 34.554688 Z M 47.199219 23.726562 " clip-rule="nonzero"/></clipPath></defs><g clip-path="url(#8527418dd1)"><g clip-path="url(#ce16d2ef9e)"><path fill="#332219" d="M 0 17.980469 L 247.972656 17.980469 L 247.972656 103.421875 L 0 103.421875 Z M 0 17.980469 " fill-opacity="1" fill-rule="nonzero"/></g></g><g clip-path="url(#1a520e8c71)"><g clip-path="url(#04db178837)"><g clip-path="url(#e091f42238)"><path fill="#8d7d72" d="M 60.230469 20.078125 C 62.140625 25.617188 64.257812 31.125 65.976562 36.726562 C 67.316406 41.097656 62.273438 45.808594 58.007812 43.304688 C 56.742188 42.5625 56.148438 41.347656 55.679688 40.039062 C 54.832031 37.683594 54.046875 35.304688 53.230469 32.9375 C 51.34375 27.476562 49.273438 22.039062 47.5625 16.515625 C 45.914062 11.183594 53.816406 8.839844 55.945312 13.800781 C 58.167969 18.984375 59.667969 24.59375 61.511719 29.929688 C 61.792969 30.742188 60.527344 31.179688 60.246094 30.363281 L 55.75 17.332031 C 55.335938 16.144531 55.0625 14.609375 54.328125 13.550781 C 52.429688 10.816406 47.894531 12.910156 48.828125 16.082031 C 50.09375 20.371094 51.761719 24.585938 53.222656 28.816406 C 54.515625 32.5625 55.582031 36.511719 57.136719 40.160156 C 58.585938 43.558594 63.746094 43.082031 64.8125 39.515625 C 65.152344 38.382812 64.90625 37.730469 64.554688 36.714844 L 54.941406 8.84375 C 54.261719 6.878906 53.476562 4.722656 51.394531 3.867188 C 49.03125 2.898438 45.863281 4.207031 44.710938 6.414062 C 43.074219 9.542969 45.917969 14.769531 46.929688 17.703125 L 51.835938 31.917969 C 52.117188 32.734375 50.851562 33.171875 50.570312 32.355469 L 45.195312 16.78125 C 44.101562 13.605469 41.847656 9.394531 43.402344 6.03125 C 44.398438 3.882812 46.828125 2.40625 49.167969 2.222656 C 52.1875 1.988281 54.425781 3.972656 55.566406 6.628906 C 57.425781 10.960938 58.695312 15.628906 60.230469 20.078125 Z M 60.230469 20.078125 " fill-opacity="1" fill-rule="nonzero"/></g></g></g><g fill="#332219" fill-opacity="1"><g transform="translate(245.096564, 89.768436)"><g><path d="M 20.8125 -37.203125 C 27.1875 -37.203125 31.976562 -35.242188 35.1875 -31.328125 C 38.394531 -27.410156 39.789062 -22.039062 39.375 -15.21875 L 13.515625 -15.21875 C 14.109375 -13.03125 15.15625 -11.34375 16.65625 -10.15625 C 18.15625 -8.976562 20 -8.390625 22.1875 -8.390625 C 25.550781 -8.390625 28.484375 -9.644531 30.984375 -12.15625 L 37.203125 -6.078125 C 33.242188 -1.753906 27.894531 0.40625 21.15625 0.40625 C 15.195312 0.40625 10.453125 -1.296875 6.921875 -4.703125 C 3.398438 -8.117188 1.640625 -12.648438 1.640625 -18.296875 C 1.640625 -23.984375 3.398438 -28.554688 6.921875 -32.015625 C 10.453125 -35.472656 15.082031 -37.203125 20.8125 -37.203125 Z M 13.3125 -21.5625 L 28.046875 -21.5625 C 28.046875 -23.789062 27.394531 -25.585938 26.09375 -26.953125 C 24.800781 -28.316406 23.085938 -29 20.953125 -29 C 18.953125 -29 17.269531 -28.328125 15.90625 -26.984375 C 14.539062 -25.648438 13.675781 -23.84375 13.3125 -21.5625 Z M 13.3125 -21.5625 "/></g></g></g><g fill="#332219" fill-opacity="1"><g transform="translate(282.293074, 89.768436)"><g><path d="M 20.75 -26.203125 L 27.296875 -36.78125 L 40.203125 -36.78125 L 28.53125 -18.90625 L 41.015625 0 L 27.4375 0 L 20.75 -11.53125 L 13.234375 0 L 0.265625 0 L 12.828125 -18.84375 L 1.09375 -36.78125 L 14.609375 -36.78125 Z M 20.75 -26.203125 "/></g></g></g><g fill="#332219" fill-opacity="1"><g transform="translate(319.762576, 89.768436)"><g><path d="M 26.140625 -10.171875 L 28.453125 -1.984375 C 25.585938 -0.296875 22.3125 0.546875 18.625 0.546875 C 14.988281 0.546875 12.046875 -0.460938 9.796875 -2.484375 C 7.546875 -4.515625 6.421875 -7.394531 6.421875 -11.125 L 6.421875 -27.375 L 1.296875 -27.375 L 1.296875 -35.078125 L 6.421875 -35.078125 L 6.421875 -45.3125 L 18.15625 -45.3125 L 18.15625 -35.15625 L 27.78125 -35.15625 L 27.78125 -27.375 L 18.15625 -27.375 L 18.15625 -12.96875 C 18.15625 -11.5625 18.4375 -10.523438 19 -9.859375 C 19.570312 -9.203125 20.425781 -8.894531 21.5625 -8.9375 C 22.65625 -8.9375 24.179688 -9.347656 26.140625 -10.171875 Z M 26.140625 -10.171875 "/></g></g></g><g fill="#332219" fill-opacity="1"><g transform="translate(345.563727, 89.768436)"><g/></g></g><g fill="#44312b" fill-opacity="1"><g transform="translate(212.268648, 89.768436)"><g><path d="M 41.296875 -38.015625 L 26.890625 -38.015625 L 26.890625 0 L 14.734375 0 L 14.734375 -38.015625 L 0.484375 -38.015625 L 0.484375 -47.84375 L 41.296875 -47.84375 Z M 41.296875 -38.015625 "/></g></g></g><g fill="#f4e8d9" fill-opacity="1"><g transform="translate(34.285126, 85.38567)"><g><path d="M 23.140625 -48.328125 C 30.285156 -48.328125 36.5625 -46.550781 41.96875 -43 L 37.40625 -33.515625 C 34.894531 -34.960938 32.207031 -36.15625 29.34375 -37.09375 C 26.476562 -38.03125 24.066406 -38.5 22.109375 -38.5 C 18.609375 -38.5 16.859375 -37.335938 16.859375 -35.015625 C 16.859375 -33.515625 17.722656 -32.304688 19.453125 -31.390625 C 21.179688 -30.484375 23.285156 -29.695312 25.765625 -29.03125 C 28.242188 -28.375 30.722656 -27.578125 33.203125 -26.640625 C 35.679688 -25.710938 37.785156 -24.203125 39.515625 -22.109375 C 41.242188 -20.015625 42.109375 -17.378906 42.109375 -14.203125 C 42.109375 -9.597656 40.3125 -6.007812 36.71875 -3.4375 C 33.125 -0.875 28.550781 0.40625 23 0.40625 C 19.039062 0.40625 15.125 -0.273438 11.25 -1.640625 C 7.382812 -3.003906 4.019531 -4.867188 1.15625 -7.234375 L 5.875 -16.578125 C 8.28125 -14.484375 11.117188 -12.765625 14.390625 -11.421875 C 17.671875 -10.085938 20.585938 -9.421875 23.140625 -9.421875 C 25.097656 -9.421875 26.617188 -9.769531 27.703125 -10.46875 C 28.796875 -11.175781 29.34375 -12.210938 29.34375 -13.578125 C 29.34375 -14.898438 28.71875 -16.003906 27.46875 -16.890625 C 26.21875 -17.773438 24.660156 -18.429688 22.796875 -18.859375 C 20.929688 -19.296875 18.90625 -19.878906 16.71875 -20.609375 C 14.53125 -21.335938 12.503906 -22.132812 10.640625 -23 C 8.773438 -23.863281 7.21875 -25.238281 5.96875 -27.125 C 4.71875 -29.019531 4.09375 -31.285156 4.09375 -33.921875 C 4.09375 -38.285156 5.832031 -41.773438 9.3125 -44.390625 C 12.789062 -47.015625 17.398438 -48.328125 23.140625 -48.328125 Z M 23.140625 -48.328125 "/></g></g></g><g fill="#f4e8d9" fill-opacity="1"><g transform="translate(74.348184, 85.38567)"><g><path d="M 53.84375 -37.328125 C 57.894531 -37.328125 61.113281 -36.039062 63.5 -33.46875 C 65.894531 -30.90625 67.09375 -27.484375 67.09375 -23.203125 L 67.09375 0 L 55.34375 0 L 55.34375 -19.921875 C 55.34375 -22.109375 54.773438 -23.828125 53.640625 -25.078125 C 52.503906 -26.328125 50.957031 -26.953125 49 -26.953125 C 46.820312 -26.910156 45.082031 -26.082031 43.78125 -24.46875 C 42.488281 -22.851562 41.84375 -20.769531 41.84375 -18.21875 L 41.84375 0 L 30.03125 0 L 30.03125 -19.921875 C 30.03125 -22.109375 29.472656 -23.828125 28.359375 -25.078125 C 27.242188 -26.328125 25.707031 -26.953125 23.75 -26.953125 C 21.519531 -26.910156 19.742188 -26.066406 18.421875 -24.421875 C 17.109375 -22.785156 16.453125 -20.71875 16.453125 -18.21875 L 16.453125 0 L 4.703125 0 L 4.703125 -36.78125 L 16.453125 -36.78125 L 16.453125 -30.71875 C 18.953125 -35.039062 23 -37.242188 28.59375 -37.328125 C 31.550781 -37.328125 34.109375 -36.585938 36.265625 -35.109375 C 38.429688 -33.628906 39.96875 -31.59375 40.875 -29 C 43.289062 -34.46875 47.613281 -37.242188 53.84375 -37.328125 Z M 53.84375 -37.328125 "/></g></g></g><g fill="#f4e8d9" fill-opacity="1"><g transform="translate(141.233955, 85.38567)"><g><path d="M 21.21875 -37.328125 C 26.269531 -37.328125 30.195312 -36.15625 33 -33.8125 C 35.800781 -31.46875 37.222656 -28.207031 37.265625 -24.03125 L 37.265625 0 L 25.734375 0 L 25.734375 -4.234375 C 23.316406 -1.046875 19.5625 0.546875 14.46875 0.546875 C 10.601562 0.546875 7.53125 -0.519531 5.25 -2.65625 C 2.976562 -4.800781 1.84375 -7.578125 1.84375 -10.984375 C 1.84375 -14.492188 3.054688 -17.210938 5.484375 -19.140625 C 7.921875 -21.078125 11.414062 -22.066406 15.96875 -22.109375 L 25.65625 -22.109375 L 25.65625 -22.65625 C 25.65625 -24.476562 25.050781 -25.898438 23.84375 -26.921875 C 22.644531 -27.941406 20.863281 -28.453125 18.5 -28.453125 C 15.175781 -28.453125 11.507812 -27.429688 7.5 -25.390625 L 4.15625 -33.171875 C 10.125 -35.941406 15.8125 -37.328125 21.21875 -37.328125 Z M 18.09375 -7.4375 C 19.957031 -7.4375 21.59375 -7.898438 23 -8.828125 C 24.40625 -9.765625 25.289062 -10.984375 25.65625 -12.484375 L 25.65625 -15.765625 L 18.21875 -15.765625 C 14.675781 -15.765625 12.90625 -14.445312 12.90625 -11.8125 C 12.90625 -10.445312 13.359375 -9.375 14.265625 -8.59375 C 15.171875 -7.820312 16.445312 -7.4375 18.09375 -7.4375 Z M 18.09375 -7.4375 "/></g></g></g><g fill="#f4e8d9" fill-opacity="1"><g transform="translate(178.293956, 85.38567)"><g><path d="M 16.515625 -36.78125 L 16.515625 -30.578125 C 19.109375 -34.992188 23.085938 -37.242188 28.453125 -37.328125 L 28.453125 -26.6875 C 25.085938 -27 22.335938 -26.4375 20.203125 -25 C 18.066406 -23.570312 16.835938 -21.539062 16.515625 -18.90625 L 16.515625 0 L 4.703125 0 L 4.703125 -36.78125 Z M 16.515625 -36.78125 "/></g></g></g><g fill="#f4e8d9" fill-opacity="1"><g transform="translate(203.546511, 85.38567)"><g><path d="M 41.296875 -38.015625 L 26.890625 -38.015625 L 26.890625 0 L 14.734375 0 L 14.734375 -38.015625 L 0.484375 -38.015625 L 0.484375 -47.84375 L 41.296875 -47.84375 Z M 41.296875 -38.015625 "/></g></g></g><g fill="#332219" fill-opacity="1"><g transform="translate(348.855608, 89.768436)"><g/></g></g><g fill="#332219" fill-opacity="1"><g transform="translate(360.81408, 89.768436)"><g><path d="M 4.78125 -47.78125 L 25.59375 -47.78125 C 31.6875 -47.78125 36.414062 -46.332031 39.78125 -43.4375 C 43.15625 -40.550781 44.84375 -36.445312 44.84375 -31.125 C 44.84375 -25.53125 43.15625 -21.179688 39.78125 -18.078125 C 36.414062 -14.984375 31.6875 -13.4375 25.59375 -13.4375 L 16.921875 -13.4375 L 16.921875 0 L 4.78125 0 Z M 16.921875 -38.21875 L 16.921875 -23 L 24.984375 -23 C 27.660156 -23 29.726562 -23.65625 31.1875 -24.96875 C 32.644531 -26.289062 33.375 -28.207031 33.375 -30.71875 C 33.375 -33.164062 32.644531 -35.023438 31.1875 -36.296875 C 29.726562 -37.578125 27.660156 -38.21875 24.984375 -38.21875 Z M 16.921875 -38.21875 "/></g></g></g><g fill="#332219" fill-opacity="1"><g transform="translate(403.334169, 89.768436)"><g><path d="M 4.78125 -47.78125 L 25.328125 -47.78125 C 32.828125 -47.78125 38.929688 -45.570312 43.640625 -41.15625 C 48.347656 -36.738281 50.703125 -30.984375 50.703125 -23.890625 C 50.703125 -16.835938 48.3125 -11.09375 43.53125 -6.65625 C 38.757812 -2.21875 32.53125 0 24.84375 0 L 4.78125 0 Z M 16.921875 -38.078125 L 16.921875 -9.6875 L 25.59375 -9.6875 C 29.320312 -9.6875 32.378906 -10.992188 34.765625 -13.609375 C 37.160156 -16.234375 38.359375 -19.632812 38.359375 -23.8125 C 38.359375 -28 37.101562 -31.421875 34.59375 -34.078125 C 32.09375 -36.742188 28.910156 -38.078125 25.046875 -38.078125 Z M 16.921875 -38.078125 "/></g></g></g><g fill="#332219" fill-opacity="1"><g transform="translate(451.792114, 89.768436)"><g><path d="M 40.203125 -38.21875 L 16.921875 -38.21875 L 16.921875 -27.15625 L 38.359375 -27.15625 L 38.359375 -17.609375 L 16.921875 -17.609375 L 16.921875 0 L 4.78125 0 L 4.78125 -47.78125 L 40.203125 -47.78125 Z M 40.203125 -38.21875 "/></g></g></g><g clip-path="url(#7fb073dc14)"><g clip-path="url(#9a475864db)"><path fill="#332219" d="M 47.199219 23.726562 L 49.328125 23.046875 L 52.789062 33.878906 L 50.664062 34.558594 Z M 47.199219 23.726562 " fill-opacity="1" fill-rule="nonzero"/></g></g><path stroke-linecap="butt" transform="matrix(0.275244, -0.352028, 0.352028, 0.275244, 47.625321, 23.591106)" fill="none" stroke-linejoin="miter" d="M -0.0000193623 1.996457 L 3.486889 1.999831 " stroke="#332219" stroke-width="4" stroke-opacity="1" stroke-miterlimit="4"/></svg>