<svg xmlns="http://www.w3.org/2000/svg" xmlns:xlink="http://www.w3.org/1999/xlink" width="990" zoomAndPan="magnify" viewBox="0 0 742.5 163.5" height="218" preserveAspectRatio="xMidYMid meet" version="1.0"><defs><g/><clipPath id="a120adb7ef"><path d="M 5 24 L 334 24 L 334 140.808594 L 5 140.808594 Z M 5 24 " clip-rule="nonzero"/></clipPath><clipPath id="fffb6b381d"><path d="M 80.257812 24.449219 L 327.949219 24.449219 C 330.089844 24.449219 332.070312 25.601562 333.132812 27.460938 C 334.191406 29.324219 334.175781 31.613281 333.082031 33.457031 L 274.84375 131.800781 C 271.539062 137.382812 265.53125 140.808594 259.042969 140.808594 L 11.351562 140.808594 C 9.207031 140.808594 7.226562 139.660156 6.167969 137.796875 C 5.105469 135.933594 5.125 133.644531 6.214844 131.800781 L 64.453125 33.457031 C 67.761719 27.875 73.765625 24.449219 80.257812 24.449219 Z M 80.257812 24.449219 " clip-rule="nonzero"/></clipPath><clipPath id="41b8db41f9"><path d="M 59 2 L 92 2 L 92 60 L 59 60 Z M 59 2 " clip-rule="nonzero"/></clipPath><clipPath id="d349051bed"><path d="M 55.652344 6.316406 L 74.0625 -0.0351562 L 94.503906 59.21875 L 76.09375 65.570312 Z M 55.652344 6.316406 " clip-rule="nonzero"/></clipPath><clipPath id="196822406d"><path d="M 76.132812 65.679688 L 94.542969 59.328125 L 74.097656 0.0703125 L 55.6875 6.421875 Z M 76.132812 65.679688 " clip-rule="nonzero"/></clipPath><clipPath id="bab736d736"><path d="M 65 31 L 73 31 L 73 48 L 65 48 Z M 65 31 " clip-rule="nonzero"/></clipPath><clipPath id="08633a0d10"><path d="M 65.164062 32.277344 L 68.058594 31.351562 L 72.777344 46.097656 L 69.878906 47.023438 Z M 65.164062 32.277344 " clip-rule="nonzero"/></clipPath></defs><g clip-path="url(#a120adb7ef)"><g clip-path="url(#fffb6b381d)"><path fill="#332219" d="M 0.882812 24.449219 L 338.59375 24.449219 L 338.59375 140.808594 L 0.882812 140.808594 Z M 0.882812 24.449219 " fill-opacity="1" fill-rule="nonzero"/></g></g><g clip-path="url(#41b8db41f9)"><g clip-path="url(#d349051bed)"><g clip-path="url(#196822406d)"><path fill="#8d7d72" d="M 82.910156 27.308594 C 85.511719 34.847656 88.394531 42.351562 90.734375 49.980469 C 92.558594 55.933594 85.691406 62.347656 79.878906 58.9375 C 78.15625 57.929688 77.351562 56.273438 76.710938 54.488281 C 75.558594 51.28125 74.484375 48.042969 73.375 44.820312 C 70.808594 37.378906 67.984375 29.976562 65.65625 22.457031 C 63.410156 15.195312 74.175781 12 77.074219 18.753906 C 80.101562 25.816406 82.144531 33.457031 84.652344 40.722656 C 85.035156 41.832031 83.3125 42.425781 82.929688 41.316406 L 76.804688 23.566406 C 76.246094 21.945312 75.871094 19.859375 74.867188 18.414062 C 72.285156 14.695312 66.105469 17.542969 67.382812 21.863281 C 69.105469 27.707031 71.378906 33.445312 73.363281 39.207031 C 75.125 44.3125 76.578125 49.6875 78.695312 54.65625 C 80.667969 59.285156 87.699219 58.632812 89.148438 53.78125 C 89.609375 52.238281 89.277344 51.347656 88.800781 49.964844 L 75.703125 12.007812 C 74.78125 9.328125 73.710938 6.390625 70.875 5.230469 C 67.65625 3.910156 63.34375 5.691406 61.773438 8.699219 C 59.542969 12.960938 63.417969 20.078125 64.796875 24.070312 L 71.476562 43.433594 C 71.859375 44.542969 70.136719 45.140625 69.753906 44.027344 L 62.4375 22.816406 C 60.941406 18.488281 57.871094 12.757812 59.992188 8.179688 C 61.347656 5.25 64.65625 3.242188 67.84375 2.992188 C 71.953125 2.671875 75.003906 5.375 76.558594 8.992188 C 79.085938 14.890625 80.820312 21.246094 82.910156 27.308594 Z M 82.910156 27.308594 " fill-opacity="1" fill-rule="nonzero"/></g></g></g><g fill="#332219" fill-opacity="1"><g transform="translate(334.674639, 122.216255)"><g><path d="M 28.34375 -50.65625 C 37.019531 -50.65625 43.539062 -47.988281 47.90625 -42.65625 C 52.28125 -37.332031 54.191406 -30.023438 53.640625 -20.734375 L 18.40625 -20.734375 C 19.207031 -17.753906 20.628906 -15.457031 22.671875 -13.84375 C 24.722656 -12.238281 27.234375 -11.4375 30.203125 -11.4375 C 34.796875 -11.4375 38.796875 -13.140625 42.203125 -16.546875 L 50.65625 -8.265625 C 45.269531 -2.378906 37.988281 0.5625 28.8125 0.5625 C 20.695312 0.5625 14.238281 -1.757812 9.4375 -6.40625 C 4.632812 -11.0625 2.234375 -17.226562 2.234375 -24.90625 C 2.234375 -32.65625 4.632812 -38.882812 9.4375 -43.59375 C 14.238281 -48.300781 20.539062 -50.65625 28.34375 -50.65625 Z M 18.125 -29.375 L 38.203125 -29.375 C 38.203125 -32.40625 37.316406 -34.847656 35.546875 -36.703125 C 33.785156 -38.566406 31.445312 -39.5 28.53125 -39.5 C 25.8125 -39.5 23.519531 -38.582031 21.65625 -36.75 C 19.800781 -34.925781 18.625 -32.46875 18.125 -29.375 Z M 18.125 -29.375 "/></g></g></g><g fill="#332219" fill-opacity="1"><g transform="translate(385.331808, 122.216255)"><g><path d="M 28.25 -35.6875 L 37.1875 -50.109375 L 54.75 -50.109375 L 38.859375 -25.75 L 55.859375 0 L 37.375 0 L 28.25 -15.703125 L 18.03125 0 L 0.375 0 L 17.46875 -25.65625 L 1.484375 -50.109375 L 19.890625 -50.109375 Z M 28.25 -35.6875 "/></g></g></g><g fill="#332219" fill-opacity="1"><g transform="translate(436.360761, 122.216255)"><g><path d="M 35.59375 -13.84375 L 38.765625 -2.703125 C 34.859375 -0.398438 30.394531 0.75 25.375 0.75 C 20.414062 0.75 16.398438 -0.628906 13.328125 -3.390625 C 10.265625 -6.148438 8.734375 -10.070312 8.734375 -15.15625 L 8.734375 -37.28125 L 1.765625 -37.28125 L 1.765625 -47.78125 L 8.734375 -47.78125 L 8.734375 -61.71875 L 24.71875 -61.71875 L 24.71875 -47.875 L 37.828125 -47.875 L 37.828125 -37.28125 L 24.71875 -37.28125 L 24.71875 -17.65625 C 24.71875 -15.738281 25.101562 -14.328125 25.875 -13.421875 C 26.65625 -12.523438 27.820312 -12.109375 29.375 -12.171875 C 30.863281 -12.171875 32.9375 -12.726562 35.59375 -13.84375 Z M 35.59375 -13.84375 "/></g></g></g><g fill="#332219" fill-opacity="1"><g transform="translate(471.498824, 122.216255)"><g/></g></g><g fill="#44312b" fill-opacity="1"><g transform="translate(289.966987, 122.216255)"><g><path d="M 56.234375 -51.78125 L 36.625 -51.78125 L 36.625 0 L 20.078125 0 L 20.078125 -51.78125 L 0.65625 -51.78125 L 0.65625 -65.15625 L 56.234375 -65.15625 Z M 56.234375 -51.78125 "/></g></g></g><g fill="#f4e8d9" fill-opacity="1"><g transform="translate(47.574839, 116.247454)"><g><path d="M 31.515625 -65.8125 C 41.242188 -65.8125 49.796875 -63.394531 57.171875 -58.5625 L 50.9375 -45.640625 C 47.53125 -47.617188 43.875 -49.242188 39.96875 -50.515625 C 36.0625 -51.785156 32.773438 -52.421875 30.109375 -52.421875 C 25.335938 -52.421875 22.953125 -50.84375 22.953125 -47.6875 C 22.953125 -45.644531 24.128906 -44.003906 26.484375 -42.765625 C 28.847656 -41.523438 31.71875 -40.453125 35.09375 -39.546875 C 38.46875 -38.648438 41.84375 -37.566406 45.21875 -36.296875 C 48.59375 -35.023438 51.457031 -32.960938 53.8125 -30.109375 C 56.175781 -27.265625 57.359375 -23.671875 57.359375 -19.328125 C 57.359375 -13.078125 54.910156 -8.195312 50.015625 -4.6875 C 45.117188 -1.1875 38.890625 0.5625 31.328125 0.5625 C 25.929688 0.5625 20.597656 -0.363281 15.328125 -2.21875 C 10.066406 -4.082031 5.484375 -6.628906 1.578125 -9.859375 L 8 -22.59375 C 11.28125 -19.738281 15.148438 -17.394531 19.609375 -15.5625 C 24.078125 -13.738281 28.046875 -12.828125 31.515625 -12.828125 C 34.179688 -12.828125 36.253906 -13.304688 37.734375 -14.265625 C 39.222656 -15.222656 39.96875 -16.632812 39.96875 -18.5 C 39.96875 -20.289062 39.113281 -21.789062 37.40625 -23 C 35.707031 -24.207031 33.585938 -25.101562 31.046875 -25.6875 C 28.503906 -26.28125 25.742188 -27.070312 22.765625 -28.0625 C 19.796875 -29.0625 17.039062 -30.148438 14.5 -31.328125 C 11.957031 -32.503906 9.832031 -34.378906 8.125 -36.953125 C 6.425781 -39.523438 5.578125 -42.609375 5.578125 -46.203125 C 5.578125 -52.148438 7.945312 -56.90625 12.6875 -60.46875 C 17.425781 -64.03125 23.703125 -65.8125 31.515625 -65.8125 Z M 31.515625 -65.8125 "/></g></g></g><g fill="#f4e8d9" fill-opacity="1"><g transform="translate(102.135902, 116.247454)"><g><path d="M 73.34375 -50.84375 C 78.851562 -50.84375 83.234375 -49.09375 86.484375 -45.59375 C 89.742188 -42.09375 91.375 -37.429688 91.375 -31.609375 L 91.375 0 L 75.390625 0 L 75.390625 -27.140625 C 75.390625 -30.117188 74.613281 -32.457031 73.0625 -34.15625 C 71.507812 -35.863281 69.398438 -36.71875 66.734375 -36.71875 C 63.765625 -36.65625 61.394531 -35.523438 59.625 -33.328125 C 57.863281 -31.128906 56.984375 -28.289062 56.984375 -24.8125 L 56.984375 0 L 40.90625 0 L 40.90625 -27.140625 C 40.90625 -30.117188 40.144531 -32.457031 38.625 -34.15625 C 37.101562 -35.863281 35.007812 -36.71875 32.34375 -36.71875 C 29.3125 -36.65625 26.894531 -35.507812 25.09375 -33.28125 C 23.300781 -31.050781 22.40625 -28.226562 22.40625 -24.8125 L 22.40625 0 L 6.40625 0 L 6.40625 -50.109375 L 22.40625 -50.109375 L 22.40625 -41.828125 C 25.8125 -47.710938 31.328125 -50.71875 38.953125 -50.84375 C 42.972656 -50.84375 46.453125 -49.832031 49.390625 -47.8125 C 52.335938 -45.800781 54.429688 -43.03125 55.671875 -39.5 C 58.960938 -46.9375 64.851562 -50.71875 73.34375 -50.84375 Z M 73.34375 -50.84375 "/></g></g></g><g fill="#f4e8d9" fill-opacity="1"><g transform="translate(193.226273, 116.247454)"><g><path d="M 28.90625 -50.84375 C 35.78125 -50.84375 41.125 -49.242188 44.9375 -46.046875 C 48.75 -42.859375 50.6875 -38.414062 50.75 -32.71875 L 50.75 0 L 35.046875 0 L 35.046875 -5.765625 C 31.753906 -1.421875 26.640625 0.75 19.703125 0.75 C 14.441406 0.75 10.257812 -0.707031 7.15625 -3.625 C 4.0625 -6.539062 2.515625 -10.320312 2.515625 -14.96875 C 2.515625 -19.738281 4.171875 -23.441406 7.484375 -26.078125 C 10.796875 -28.710938 15.550781 -30.054688 21.75 -30.109375 L 34.953125 -30.109375 L 34.953125 -30.859375 C 34.953125 -33.335938 34.128906 -35.273438 32.484375 -36.671875 C 30.847656 -38.066406 28.414062 -38.765625 25.1875 -38.765625 C 20.664062 -38.765625 15.675781 -37.367188 10.21875 -34.578125 L 5.671875 -45.171875 C 13.785156 -48.953125 21.53125 -50.84375 28.90625 -50.84375 Z M 24.625 -10.125 C 27.164062 -10.125 29.394531 -10.757812 31.3125 -12.03125 C 33.238281 -13.300781 34.453125 -14.960938 34.953125 -17.015625 L 34.953125 -21.46875 L 24.8125 -21.46875 C 19.976562 -21.46875 17.5625 -19.671875 17.5625 -16.078125 C 17.5625 -14.222656 18.179688 -12.765625 19.421875 -11.703125 C 20.660156 -10.648438 22.394531 -10.125 24.625 -10.125 Z M 24.625 -10.125 "/></g></g></g><g fill="#f4e8d9" fill-opacity="1"><g transform="translate(243.697534, 116.247454)"><g><path d="M 22.5 -50.109375 L 22.5 -41.640625 C 26.03125 -47.648438 31.453125 -50.71875 38.765625 -50.84375 L 38.765625 -36.34375 C 34.179688 -36.78125 30.429688 -36.019531 27.515625 -34.0625 C 24.597656 -32.113281 22.925781 -29.34375 22.5 -25.75 L 22.5 0 L 6.40625 0 L 6.40625 -50.109375 Z M 22.5 -50.109375 "/></g></g></g><g fill="#f4e8d9" fill-opacity="1"><g transform="translate(278.088474, 116.247454)"><g><path d="M 56.234375 -51.78125 L 36.625 -51.78125 L 36.625 0 L 20.078125 0 L 20.078125 -51.78125 L 0.65625 -51.78125 L 0.65625 -65.15625 L 56.234375 -65.15625 Z M 56.234375 -51.78125 "/></g></g></g><g fill="#332219" fill-opacity="1"><g transform="translate(475.982003, 122.216255)"><g/></g></g><g fill="#332219" fill-opacity="1"><g transform="translate(492.268003, 122.216255)"><g><path d="M 6.5 -65.0625 L 34.859375 -65.0625 C 43.160156 -65.0625 49.601562 -63.09375 54.1875 -59.15625 C 58.769531 -55.226562 61.0625 -49.640625 61.0625 -42.390625 C 61.0625 -34.765625 58.769531 -28.84375 54.1875 -24.625 C 49.601562 -20.414062 43.160156 -18.3125 34.859375 -18.3125 L 23.046875 -18.3125 L 23.046875 0 L 6.5 0 Z M 23.046875 -52.046875 L 23.046875 -31.328125 L 34.015625 -31.328125 C 37.671875 -31.328125 40.488281 -32.222656 42.46875 -34.015625 C 44.457031 -35.816406 45.453125 -38.421875 45.453125 -41.828125 C 45.453125 -45.171875 44.457031 -47.707031 42.46875 -49.4375 C 40.488281 -51.175781 37.671875 -52.046875 34.015625 -52.046875 Z M 23.046875 -52.046875 "/></g></g></g><g fill="#332219" fill-opacity="1"><g transform="translate(550.175247, 122.216255)"><g><path d="M 6.5 -65.0625 L 34.484375 -65.0625 C 44.710938 -65.0625 53.03125 -62.054688 59.4375 -56.046875 C 65.851562 -50.035156 69.0625 -42.195312 69.0625 -32.53125 C 69.0625 -22.925781 65.804688 -15.101562 59.296875 -9.0625 C 52.796875 -3.019531 44.304688 0 33.828125 0 L 6.5 0 Z M 23.046875 -51.875 L 23.046875 -13.203125 L 34.859375 -13.203125 C 39.941406 -13.203125 44.109375 -14.984375 47.359375 -18.546875 C 50.609375 -22.109375 52.234375 -26.738281 52.234375 -32.4375 C 52.234375 -38.144531 50.53125 -42.8125 47.125 -46.4375 C 43.71875 -50.0625 39.378906 -51.875 34.109375 -51.875 Z M 23.046875 -51.875 "/></g></g></g><g fill="#332219" fill-opacity="1"><g transform="translate(616.169135, 122.216255)"><g><path d="M 54.75 -52.046875 L 23.046875 -52.046875 L 23.046875 -37 L 52.234375 -37 L 52.234375 -23.984375 L 23.046875 -23.984375 L 23.046875 0 L 6.5 0 L 6.5 -65.0625 L 54.75 -65.0625 Z M 54.75 -52.046875 "/></g></g></g><g clip-path="url(#bab736d736)"><g clip-path="url(#08633a0d10)"><path fill="#332219" d="M 65.164062 32.277344 L 68.058594 31.351562 L 72.777344 46.101562 L 69.878906 47.027344 Z M 65.164062 32.277344 " fill-opacity="1" fill-rule="nonzero"/></g></g><path stroke-linecap="butt" transform="matrix(0.374849, -0.47942, 0.47942, 0.374849, 65.742573, 32.090694)" fill="none" stroke-linejoin="miter" d="M 0.00244083 2.00166 L 3.487177 1.998402 " stroke="#332219" stroke-width="4" stroke-opacity="1" stroke-miterlimit="4"/></svg>