<svg xmlns="http://www.w3.org/2000/svg" xmlns:xlink="http://www.w3.org/1999/xlink" width="113" zoomAndPan="magnify" viewBox="0 0 84.75 92.249997" height="123" preserveAspectRatio="xMidYMid meet" version="1.0"><defs><clipPath id="3c271fe88c"><path d="M 13 0 L 84 0 L 84 90.761719 L 13 90.761719 Z M 13 0 " clip-rule="nonzero"/></clipPath><clipPath id="75fb0a462e"><path d="M 0.21875 14 L 44 14 L 44 35 L 0.21875 35 Z M 0.21875 14 " clip-rule="nonzero"/></clipPath><clipPath id="84332ecc6a"><path d="M 13 0 L 84 0 L 84 90.761719 L 13 90.761719 Z M 13 0 " clip-rule="nonzero"/></clipPath><clipPath id="6947d7758a"><path d="M 0.21875 14 L 44 14 L 44 35 L 0.21875 35 Z M 0.21875 14 " clip-rule="nonzero"/></clipPath></defs><path fill="#332219" d="M 70.507812 31.996094 L 58.957031 31.996094 C 54.292969 31.996094 50.496094 28.199219 50.496094 23.535156 L 50.496094 13.300781 L 56.320312 13.300781 L 56.320312 23.535156 C 56.320312 24.988281 57.503906 26.171875 58.957031 26.171875 L 70.507812 26.171875 Z M 70.507812 31.996094 " fill-opacity="1" fill-rule="nonzero"/><g clip-path="url(#3c271fe88c)"><path fill="#332219" d="M 80.941406 23.554688 L 60.207031 2.921875 C 58.3125 1.039062 55.800781 0 53.128906 0 L 23.488281 0 C 18.152344 0 13.8125 4.339844 13.8125 9.671875 L 13.8125 11.90625 L 19.636719 11.90625 L 19.636719 9.671875 C 19.636719 7.550781 21.363281 5.820312 23.488281 5.820312 L 53.132812 5.820312 C 54.253906 5.820312 55.304688 6.257812 56.101562 7.046875 L 76.835938 27.679688 C 77.621094 28.464844 78.074219 29.554688 78.074219 30.664062 L 78.074219 81.332031 C 78.074219 83.457031 76.347656 85.183594 74.222656 85.183594 L 23.488281 85.183594 C 21.363281 85.183594 19.636719 83.457031 19.636719 81.332031 L 19.636719 37.183594 L 13.8125 37.183594 L 13.8125 81.332031 C 13.8125 86.667969 18.152344 91.003906 23.488281 91.003906 L 74.222656 91.003906 C 79.554688 91.003906 83.894531 86.664062 83.894531 81.332031 L 83.894531 30.667969 C 83.894531 28.015625 82.820312 25.425781 80.941406 23.554688 Z M 80.941406 23.554688 " fill-opacity="1" fill-rule="nonzero"/></g><path fill="#332219" d="M 55.425781 76.808594 L 43.671875 76.808594 C 41.277344 76.808594 39.328125 74.859375 39.328125 72.464844 L 39.328125 57.078125 L 37.65625 57.078125 C 35.960938 57.078125 34.457031 56.128906 33.730469 54.597656 C 33.003906 53.0625 33.21875 51.296875 34.292969 49.984375 L 46.183594 35.453125 C 47.011719 34.441406 48.238281 33.859375 49.546875 33.859375 C 50.855469 33.859375 52.082031 34.441406 52.910156 35.453125 L 64.800781 49.988281 C 65.875 51.300781 66.085938 53.066406 65.363281 54.597656 C 64.636719 56.128906 63.132812 57.082031 61.4375 57.082031 L 59.769531 57.082031 L 59.769531 72.464844 C 59.769531 74.859375 57.820312 76.808594 55.425781 76.808594 Z M 43.984375 72.152344 L 55.113281 72.152344 L 55.113281 52.421875 L 60.777344 52.421875 L 49.550781 38.699219 L 38.320312 52.421875 L 43.988281 52.421875 L 43.988281 72.152344 Z M 61.195312 52.933594 Z M 61.195312 52.933594 " fill-opacity="1" fill-rule="nonzero"/><path fill="#332219" d="M 15.207031 21.054688 L 11.71875 21.054688 L 11.71875 23.847656 L 15.207031 23.847656 L 15.207031 23.148438 L 15.90625 23.148438 L 15.90625 21.753906 L 15.207031 21.753906 Z M 15.207031 21.054688 " fill-opacity="1" fill-rule="nonzero"/><path fill="#332219" d="M 23.582031 21.054688 L 20.089844 21.054688 L 20.089844 28.035156 L 23.582031 28.035156 L 23.582031 27.335938 L 24.277344 27.335938 L 24.277344 21.753906 L 23.582031 21.753906 Z M 23.582031 21.054688 " fill-opacity="1" fill-rule="nonzero"/><g clip-path="url(#75fb0a462e)"><path fill="#332219" d="M 39.574219 14.816406 L 4.796875 14.816406 C 2.503906 14.816406 0.644531 16.675781 0.644531 18.96875 L 0.644531 30.121094 C 0.644531 32.414062 2.503906 34.273438 4.796875 34.273438 L 39.574219 34.273438 C 41.867188 34.273438 43.722656 32.414062 43.722656 30.121094 L 43.722656 18.96875 C 43.726562 16.675781 41.867188 14.816406 39.574219 14.816406 Z M 17.300781 23.847656 L 16.601562 23.847656 L 16.601562 24.542969 L 15.902344 24.542969 L 15.902344 25.242188 L 11.71875 25.242188 L 11.71875 29.429688 L 10.324219 29.429688 L 10.324219 19.660156 L 15.90625 19.660156 L 15.90625 20.359375 L 16.601562 20.359375 L 16.601562 21.054688 L 17.300781 21.054688 Z M 25.675781 28.035156 L 24.976562 28.035156 L 24.976562 28.730469 L 24.277344 28.730469 L 24.277344 29.429688 L 18.695312 29.429688 L 18.695312 19.660156 L 24.277344 19.660156 L 24.277344 20.359375 L 24.976562 20.359375 L 24.976562 21.058594 L 25.675781 21.058594 Z M 34.046875 21.054688 L 28.464844 21.054688 L 28.464844 23.847656 L 32.652344 23.847656 L 32.652344 25.242188 L 28.464844 25.242188 L 28.464844 29.425781 L 27.070312 29.425781 L 27.070312 19.660156 L 34.046875 19.660156 Z M 34.046875 21.054688 " fill-opacity="1" fill-rule="nonzero"/></g><path fill="#332219" d="M 70.507812 31.996094 L 58.957031 31.996094 C 54.292969 31.996094 50.496094 28.199219 50.496094 23.535156 L 50.496094 13.300781 L 56.320312 13.300781 L 56.320312 23.535156 C 56.320312 24.988281 57.503906 26.171875 58.957031 26.171875 L 70.507812 26.171875 Z M 70.507812 31.996094 " fill-opacity="1" fill-rule="nonzero"/><g clip-path="url(#84332ecc6a)"><path fill="#332219" d="M 80.941406 23.554688 L 60.207031 2.921875 C 58.3125 1.039062 55.800781 0 53.128906 0 L 23.488281 0 C 18.152344 0 13.8125 4.339844 13.8125 9.671875 L 13.8125 11.90625 L 19.636719 11.90625 L 19.636719 9.671875 C 19.636719 7.550781 21.363281 5.820312 23.488281 5.820312 L 53.132812 5.820312 C 54.253906 5.820312 55.304688 6.257812 56.101562 7.046875 L 76.835938 27.679688 C 77.621094 28.464844 78.074219 29.554688 78.074219 30.664062 L 78.074219 81.332031 C 78.074219 83.457031 76.347656 85.183594 74.222656 85.183594 L 23.488281 85.183594 C 21.363281 85.183594 19.636719 83.457031 19.636719 81.332031 L 19.636719 37.183594 L 13.8125 37.183594 L 13.8125 81.332031 C 13.8125 86.667969 18.152344 91.003906 23.488281 91.003906 L 74.222656 91.003906 C 79.554688 91.003906 83.894531 86.664062 83.894531 81.332031 L 83.894531 30.667969 C 83.894531 28.015625 82.820312 25.425781 80.941406 23.554688 Z M 80.941406 23.554688 " fill-opacity="1" fill-rule="nonzero"/></g><path fill="#332219" d="M 55.425781 76.808594 L 43.671875 76.808594 C 41.277344 76.808594 39.328125 74.859375 39.328125 72.464844 L 39.328125 57.078125 L 37.65625 57.078125 C 35.960938 57.078125 34.457031 56.128906 33.730469 54.597656 C 33.003906 53.0625 33.21875 51.296875 34.292969 49.984375 L 46.183594 35.453125 C 47.011719 34.441406 48.238281 33.859375 49.546875 33.859375 C 50.855469 33.859375 52.082031 34.441406 52.910156 35.453125 L 64.800781 49.988281 C 65.875 51.300781 66.085938 53.066406 65.363281 54.597656 C 64.636719 56.128906 63.132812 57.082031 61.4375 57.082031 L 59.769531 57.082031 L 59.769531 72.464844 C 59.769531 74.859375 57.820312 76.808594 55.425781 76.808594 Z M 43.984375 72.152344 L 55.113281 72.152344 L 55.113281 52.421875 L 60.777344 52.421875 L 49.550781 38.699219 L 38.320312 52.421875 L 43.988281 52.421875 L 43.988281 72.152344 Z M 61.195312 52.933594 Z M 61.195312 52.933594 " fill-opacity="1" fill-rule="nonzero"/><path fill="#332219" d="M 15.207031 21.054688 L 11.71875 21.054688 L 11.71875 23.847656 L 15.207031 23.847656 L 15.207031 23.148438 L 15.90625 23.148438 L 15.90625 21.753906 L 15.207031 21.753906 Z M 15.207031 21.054688 " fill-opacity="1" fill-rule="nonzero"/><path fill="#332219" d="M 23.582031 21.054688 L 20.089844 21.054688 L 20.089844 28.035156 L 23.582031 28.035156 L 23.582031 27.335938 L 24.277344 27.335938 L 24.277344 21.753906 L 23.582031 21.753906 Z M 23.582031 21.054688 " fill-opacity="1" fill-rule="nonzero"/><g clip-path="url(#6947d7758a)"><path fill="#332219" d="M 39.574219 14.816406 L 4.796875 14.816406 C 2.503906 14.816406 0.644531 16.675781 0.644531 18.96875 L 0.644531 30.121094 C 0.644531 32.414062 2.503906 34.273438 4.796875 34.273438 L 39.574219 34.273438 C 41.867188 34.273438 43.722656 32.414062 43.722656 30.121094 L 43.722656 18.96875 C 43.726562 16.675781 41.867188 14.816406 39.574219 14.816406 Z M 17.300781 23.847656 L 16.601562 23.847656 L 16.601562 24.542969 L 15.902344 24.542969 L 15.902344 25.242188 L 11.71875 25.242188 L 11.71875 29.429688 L 10.324219 29.429688 L 10.324219 19.660156 L 15.90625 19.660156 L 15.90625 20.359375 L 16.601562 20.359375 L 16.601562 21.054688 L 17.300781 21.054688 Z M 25.675781 28.035156 L 24.976562 28.035156 L 24.976562 28.730469 L 24.277344 28.730469 L 24.277344 29.429688 L 18.695312 29.429688 L 18.695312 19.660156 L 24.277344 19.660156 L 24.277344 20.359375 L 24.976562 20.359375 L 24.976562 21.058594 L 25.675781 21.058594 Z M 34.046875 21.054688 L 28.464844 21.054688 L 28.464844 23.847656 L 32.652344 23.847656 L 32.652344 25.242188 L 28.464844 25.242188 L 28.464844 29.425781 L 27.070312 29.425781 L 27.070312 19.660156 L 34.046875 19.660156 Z M 34.046875 21.054688 " fill-opacity="1" fill-rule="nonzero"/></g></svg>