<svg xmlns="http://www.w3.org/2000/svg" xmlns:xlink="http://www.w3.org/1999/xlink" width="856" zoomAndPan="magnify" viewBox="0 0 642 141.750002" height="189" preserveAspectRatio="xMidYMid meet" version="1.0"><defs><g/><clipPath id="0727d85726"><path d="M 5 21.160156 L 288.496094 21.160156 L 288.496094 121.855469 L 5 121.855469 Z M 5 21.160156 " clip-rule="nonzero"/></clipPath><clipPath id="b73ad8907d"><path d="M 70.675781 21.160156 L 282.1875 21.160156 C 284.332031 21.160156 286.3125 22.3125 287.378906 24.175781 C 288.441406 26.039062 288.421875 28.332031 287.328125 30.179688 L 238.378906 112.835938 C 235.066406 118.425781 229.050781 121.855469 222.554688 121.855469 L 11.046875 121.855469 C 8.898438 121.855469 6.917969 120.703125 5.855469 118.839844 C 4.792969 116.976562 4.8125 114.683594 5.90625 112.835938 L 54.855469 30.179688 C 58.164062 24.589844 64.179688 21.160156 70.675781 21.160156 Z M 70.675781 21.160156 " clip-rule="nonzero"/></clipPath><clipPath id="f29df0302b"><path d="M 51 2 L 79 2 L 79 52 L 51 52 Z M 51 2 " clip-rule="nonzero"/></clipPath><clipPath id="399f1159f2"><path d="M 47.960938 5.464844 L 63.894531 -0.03125 L 81.585938 51.25 L 65.652344 56.746094 Z M 47.960938 5.464844 " clip-rule="nonzero"/></clipPath><clipPath id="f562fb26d4"><path d="M 65.6875 56.839844 L 81.617188 51.34375 L 63.925781 0.0625 L 47.996094 5.558594 Z M 65.6875 56.839844 " clip-rule="nonzero"/></clipPath><clipPath id="3266655d72"><path d="M 56 27 L 63 27 L 63 41 L 56 41 Z M 56 27 " clip-rule="nonzero"/></clipPath><clipPath id="be3e41771d"><path d="M 56.191406 27.933594 L 58.703125 27.132812 L 62.78125 39.894531 L 60.273438 40.695312 Z M 56.191406 27.933594 " clip-rule="nonzero"/></clipPath></defs><g clip-path="url(#0727d85726)"><g clip-path="url(#b73ad8907d)"><path fill="#332219" d="M 0.566406 21.160156 L 292.820312 21.160156 L 292.820312 121.855469 L 0.566406 121.855469 Z M 0.566406 21.160156 " fill-opacity="1" fill-rule="nonzero"/></g></g><g clip-path="url(#f29df0302b)"><g clip-path="url(#399f1159f2)"><g clip-path="url(#f562fb26d4)"><path fill="#8d7d72" d="M 71.554688 23.632812 C 73.804688 30.15625 76.296875 36.652344 78.324219 43.25 C 79.902344 48.402344 73.960938 53.957031 68.929688 51.003906 C 67.4375 50.132812 66.742188 48.699219 66.1875 47.15625 C 65.1875 44.378906 64.261719 41.578125 63.300781 38.789062 C 61.078125 32.347656 58.636719 25.941406 56.621094 19.433594 C 54.675781 13.148438 63.992188 10.382812 66.5 16.230469 C 69.121094 22.339844 70.890625 28.953125 73.058594 35.242188 C 73.390625 36.199219 71.898438 36.714844 71.566406 35.753906 L 66.269531 20.394531 C 65.785156 18.992188 65.460938 17.1875 64.59375 15.9375 C 62.359375 12.71875 57.011719 15.179688 58.113281 18.921875 C 59.605469 23.980469 61.570312 28.945312 63.292969 33.929688 C 64.816406 38.347656 66.070312 43 67.90625 47.300781 C 69.613281 51.304688 75.695312 50.742188 76.953125 46.542969 C 77.351562 45.207031 77.0625 44.433594 76.648438 43.238281 L 65.316406 10.390625 C 64.515625 8.074219 63.589844 5.53125 61.136719 4.527344 C 58.351562 3.382812 54.621094 4.921875 53.261719 7.527344 C 51.332031 11.214844 54.683594 17.375 55.875 20.832031 L 61.65625 37.585938 C 61.988281 38.546875 60.496094 39.0625 60.167969 38.101562 L 53.832031 19.746094 C 52.542969 16 49.882812 11.042969 51.71875 7.078125 C 52.894531 4.542969 55.753906 2.804688 58.511719 2.589844 C 62.070312 2.3125 64.710938 4.648438 66.054688 7.78125 C 68.242188 12.886719 69.742188 18.386719 71.554688 23.632812 Z M 71.554688 23.632812 " fill-opacity="1" fill-rule="nonzero"/></g></g></g><g fill="#332219" fill-opacity="1"><g transform="translate(289.430568, 105.766613)"><g><path d="M 24.53125 -43.84375 C 32.039062 -43.84375 37.6875 -41.535156 41.46875 -36.921875 C 45.25 -32.304688 46.894531 -25.976562 46.40625 -17.9375 L 15.921875 -17.9375 C 16.617188 -15.363281 17.851562 -13.378906 19.625 -11.984375 C 21.394531 -10.585938 23.566406 -9.890625 26.140625 -9.890625 C 30.109375 -9.890625 33.566406 -11.363281 36.515625 -14.3125 L 43.84375 -7.15625 C 39.175781 -2.0625 32.875 0.484375 24.9375 0.484375 C 17.90625 0.484375 12.3125 -1.523438 8.15625 -5.546875 C 4.007812 -9.566406 1.9375 -14.90625 1.9375 -21.5625 C 1.9375 -28.257812 4.007812 -33.644531 8.15625 -37.71875 C 12.3125 -41.800781 17.769531 -43.84375 24.53125 -43.84375 Z M 15.6875 -25.421875 L 33.0625 -25.421875 C 33.0625 -28.046875 32.296875 -30.160156 30.765625 -31.765625 C 29.234375 -33.378906 27.207031 -34.1875 24.6875 -34.1875 C 22.332031 -34.1875 20.347656 -33.394531 18.734375 -31.8125 C 17.128906 -30.226562 16.113281 -28.097656 15.6875 -25.421875 Z M 15.6875 -25.421875 "/></g></g></g><g fill="#332219" fill-opacity="1"><g transform="translate(333.269555, 105.766613)"><g><path d="M 24.453125 -30.890625 L 32.171875 -43.359375 L 47.375 -43.359375 L 33.625 -22.28125 L 48.34375 0 L 32.328125 0 L 24.453125 -13.59375 L 15.609375 0 L 0.328125 0 L 15.125 -22.203125 L 1.28125 -43.359375 L 17.21875 -43.359375 Z M 24.453125 -30.890625 "/></g></g></g><g fill="#332219" fill-opacity="1"><g transform="translate(377.430286, 105.766613)"><g><path d="M 30.8125 -11.984375 L 33.546875 -2.328125 C 30.160156 -0.347656 26.296875 0.640625 21.953125 0.640625 C 17.671875 0.640625 14.203125 -0.550781 11.546875 -2.9375 C 8.890625 -5.320312 7.5625 -8.710938 7.5625 -13.109375 L 7.5625 -32.25 L 1.53125 -32.25 L 1.53125 -41.34375 L 7.5625 -41.34375 L 7.5625 -53.40625 L 21.390625 -53.40625 L 21.390625 -41.421875 L 32.734375 -41.421875 L 32.734375 -32.25 L 21.390625 -32.25 L 21.390625 -15.28125 C 21.390625 -13.625 21.722656 -12.40625 22.390625 -11.625 C 23.066406 -10.84375 24.078125 -10.476562 25.421875 -10.53125 C 26.703125 -10.53125 28.5 -11.015625 30.8125 -11.984375 Z M 30.8125 -11.984375 "/></g></g></g><g fill="#332219" fill-opacity="1"><g transform="translate(407.838956, 105.766613)"><g/></g></g><g fill="#44312b" fill-opacity="1"><g transform="translate(250.740301, 105.766613)"><g><path d="M 48.671875 -44.796875 L 31.6875 -44.796875 L 31.6875 0 L 17.375 0 L 17.375 -44.796875 L 0.5625 -44.796875 L 0.5625 -56.390625 L 48.671875 -56.390625 Z M 48.671875 -44.796875 "/></g></g></g><g fill="#f4e8d9" fill-opacity="1"><g transform="translate(40.97283, 100.601181)"><g><path d="M 27.265625 -56.953125 C 35.679688 -56.953125 43.082031 -54.859375 49.46875 -50.671875 L 44.078125 -39.5 C 41.128906 -41.207031 37.960938 -42.609375 34.578125 -43.703125 C 31.203125 -44.804688 28.363281 -45.359375 26.0625 -45.359375 C 21.9375 -45.359375 19.875 -43.992188 19.875 -41.265625 C 19.875 -39.492188 20.890625 -38.070312 22.921875 -37 C 24.960938 -35.925781 27.441406 -35 30.359375 -34.21875 C 33.285156 -33.445312 36.207031 -32.507812 39.125 -31.40625 C 42.050781 -30.3125 44.53125 -28.53125 46.5625 -26.0625 C 48.601562 -23.59375 49.625 -20.484375 49.625 -16.734375 C 49.625 -11.316406 47.503906 -7.09375 43.265625 -4.0625 C 39.035156 -1.03125 33.648438 0.484375 27.109375 0.484375 C 22.441406 0.484375 17.828125 -0.316406 13.265625 -1.921875 C 8.710938 -3.535156 4.75 -5.738281 1.375 -8.53125 L 6.921875 -19.546875 C 9.765625 -17.078125 13.113281 -15.050781 16.96875 -13.46875 C 20.832031 -11.882812 24.265625 -11.09375 27.265625 -11.09375 C 29.578125 -11.09375 31.375 -11.507812 32.65625 -12.34375 C 33.945312 -13.175781 34.59375 -14.394531 34.59375 -16 C 34.59375 -17.5625 33.851562 -18.863281 32.375 -19.90625 C 30.894531 -20.957031 29.054688 -21.734375 26.859375 -22.234375 C 24.660156 -22.742188 22.273438 -23.425781 19.703125 -24.28125 C 17.128906 -25.144531 14.742188 -26.085938 12.546875 -27.109375 C 10.347656 -28.128906 8.507812 -29.75 7.03125 -31.96875 C 5.5625 -34.195312 4.828125 -36.867188 4.828125 -39.984375 C 4.828125 -45.128906 6.878906 -49.242188 10.984375 -52.328125 C 15.085938 -55.410156 20.515625 -56.953125 27.265625 -56.953125 Z M 27.265625 -56.953125 "/></g></g></g><g fill="#f4e8d9" fill-opacity="1"><g transform="translate(88.190269, 100.601181)"><g><path d="M 63.46875 -44 C 68.238281 -44 72.03125 -42.484375 74.84375 -39.453125 C 77.65625 -36.421875 79.0625 -32.382812 79.0625 -27.34375 L 79.0625 0 L 65.234375 0 L 65.234375 -23.484375 C 65.234375 -26.054688 64.5625 -28.078125 63.21875 -29.546875 C 61.882812 -31.023438 60.0625 -31.765625 57.75 -31.765625 C 55.175781 -31.710938 53.125 -30.734375 51.59375 -28.828125 C 50.070312 -26.929688 49.3125 -24.484375 49.3125 -21.484375 L 49.3125 0 L 35.390625 0 L 35.390625 -23.484375 C 35.390625 -26.054688 34.734375 -28.078125 33.421875 -29.546875 C 32.109375 -31.023438 30.300781 -31.765625 28 -31.765625 C 25.363281 -31.710938 23.269531 -30.722656 21.71875 -28.796875 C 20.164062 -26.867188 19.390625 -24.429688 19.390625 -21.484375 L 19.390625 0 L 5.546875 0 L 5.546875 -43.359375 L 19.390625 -43.359375 L 19.390625 -36.203125 C 22.335938 -41.296875 27.109375 -43.894531 33.703125 -44 C 37.191406 -44 40.207031 -43.125 42.75 -41.375 C 45.300781 -39.632812 47.113281 -37.238281 48.1875 -34.1875 C 51.019531 -40.625 56.113281 -43.894531 63.46875 -44 Z M 63.46875 -44 "/></g></g></g><g fill="#f4e8d9" fill-opacity="1"><g transform="translate(167.020366, 100.601181)"><g><path d="M 25.015625 -44 C 30.960938 -44 35.585938 -42.617188 38.890625 -39.859375 C 42.191406 -37.097656 43.867188 -33.25 43.921875 -28.3125 L 43.921875 0 L 30.328125 0 L 30.328125 -4.984375 C 27.484375 -1.234375 23.054688 0.640625 17.046875 0.640625 C 12.492188 0.640625 8.875 -0.617188 6.1875 -3.140625 C 3.507812 -5.660156 2.171875 -8.929688 2.171875 -12.953125 C 2.171875 -17.078125 3.601562 -20.28125 6.46875 -22.5625 C 9.34375 -24.84375 13.460938 -26.007812 18.828125 -26.0625 L 30.25 -26.0625 L 30.25 -26.703125 C 30.25 -28.847656 29.535156 -30.523438 28.109375 -31.734375 C 26.691406 -32.941406 24.585938 -33.546875 21.796875 -33.546875 C 17.878906 -33.546875 13.5625 -32.335938 8.84375 -29.921875 L 4.90625 -39.09375 C 11.925781 -42.363281 18.628906 -44 25.015625 -44 Z M 21.3125 -8.765625 C 23.507812 -8.765625 25.4375 -9.3125 27.09375 -10.40625 C 28.757812 -11.507812 29.8125 -12.945312 30.25 -14.71875 L 30.25 -18.578125 L 21.484375 -18.578125 C 17.296875 -18.578125 15.203125 -17.023438 15.203125 -13.921875 C 15.203125 -12.304688 15.738281 -11.039062 16.8125 -10.125 C 17.882812 -9.21875 19.382812 -8.765625 21.3125 -8.765625 Z M 21.3125 -8.765625 "/></g></g></g><g fill="#f4e8d9" fill-opacity="1"><g transform="translate(210.698468, 100.601181)"><g><path d="M 19.46875 -43.359375 L 19.46875 -36.03125 C 22.519531 -41.238281 27.210938 -43.894531 33.546875 -44 L 33.546875 -31.453125 C 29.578125 -31.828125 26.332031 -31.171875 23.8125 -29.484375 C 21.289062 -27.796875 19.84375 -25.394531 19.46875 -22.28125 L 19.46875 0 L 5.546875 0 L 5.546875 -43.359375 Z M 19.46875 -43.359375 "/></g></g></g><g fill="#f4e8d9" fill-opacity="1"><g transform="translate(240.460573, 100.601181)"><g><path d="M 48.671875 -44.796875 L 31.6875 -44.796875 L 31.6875 0 L 17.375 0 L 17.375 -44.796875 L 0.5625 -44.796875 L 0.5625 -56.390625 L 48.671875 -56.390625 Z M 48.671875 -44.796875 "/></g></g></g><g fill="#332219" fill-opacity="1"><g transform="translate(411.718723, 105.766613)"><g/></g></g><g fill="#332219" fill-opacity="1"><g transform="translate(425.812715, 105.766613)"><g><path d="M 5.625 -56.3125 L 30.15625 -56.3125 C 37.34375 -56.3125 42.921875 -54.609375 46.890625 -51.203125 C 50.859375 -47.796875 52.84375 -42.953125 52.84375 -36.671875 C 52.84375 -30.078125 50.859375 -24.957031 46.890625 -21.3125 C 42.921875 -17.664062 37.34375 -15.84375 30.15625 -15.84375 L 19.953125 -15.84375 L 19.953125 0 L 5.625 0 Z M 19.953125 -45.046875 L 19.953125 -27.109375 L 29.4375 -27.109375 C 32.601562 -27.109375 35.039062 -27.882812 36.75 -29.4375 C 38.46875 -30.988281 39.328125 -33.242188 39.328125 -36.203125 C 39.328125 -39.097656 38.46875 -41.296875 36.75 -42.796875 C 35.039062 -44.296875 32.601562 -45.046875 29.4375 -45.046875 Z M 19.953125 -45.046875 "/></g></g></g><g fill="#332219" fill-opacity="1"><g transform="translate(475.925956, 105.766613)"><g><path d="M 5.625 -56.3125 L 29.84375 -56.3125 C 38.6875 -56.3125 45.882812 -53.707031 51.4375 -48.5 C 56.988281 -43.300781 59.765625 -36.519531 59.765625 -28.15625 C 59.765625 -19.84375 56.945312 -13.070312 51.3125 -7.84375 C 45.6875 -2.613281 38.34375 0 29.28125 0 L 5.625 0 Z M 19.953125 -44.890625 L 19.953125 -11.421875 L 30.15625 -11.421875 C 34.5625 -11.421875 38.171875 -12.960938 40.984375 -16.046875 C 43.796875 -19.128906 45.203125 -23.132812 45.203125 -28.0625 C 45.203125 -33 43.726562 -37.035156 40.78125 -40.171875 C 37.832031 -43.316406 34.078125 -44.890625 29.515625 -44.890625 Z M 19.953125 -44.890625 "/></g></g></g><g fill="#332219" fill-opacity="1"><g transform="translate(533.037423, 105.766613)"><g><path d="M 47.375 -45.046875 L 19.953125 -45.046875 L 19.953125 -32.015625 L 45.203125 -32.015625 L 45.203125 -20.75 L 19.953125 -20.75 L 19.953125 0 L 5.625 0 L 5.625 -56.3125 L 47.375 -56.3125 Z M 47.375 -45.046875 "/></g></g></g><g clip-path="url(#3266655d72)"><g clip-path="url(#be3e41771d)"><path fill="#332219" d="M 56.191406 27.933594 L 58.703125 27.132812 L 62.78125 39.898438 L 60.273438 40.699219 Z M 56.191406 27.933594 " fill-opacity="1" fill-rule="nonzero"/></g></g><path stroke-linecap="butt" transform="matrix(0.324396, -0.414893, 0.414893, 0.324396, 56.695288, 27.771467)" fill="none" stroke-linejoin="miter" d="M -0.00432965 1.999441 L 3.488311 1.99899 " stroke="#332219" stroke-width="4" stroke-opacity="1" stroke-miterlimit="4"/></svg>