<svg xmlns="http://www.w3.org/2000/svg" xmlns:xlink="http://www.w3.org/1999/xlink" width="209" zoomAndPan="magnify" viewBox="0 0 156.75 34.499999" height="46" preserveAspectRatio="xMidYMid meet" version="1.0"><defs><g/><clipPath id="a5f94f9787"><path d="M 5.359375 5.101562 L 67 5.101562 L 67 29.382812 L 5.359375 29.382812 Z M 5.359375 5.101562 " clip-rule="nonzero"/></clipPath><clipPath id="207d0f2b99"><path d="M 25.726562 5.101562 L 61.078125 5.101562 C 63.199219 5.101562 65.152344 6.238281 66.203125 8.078125 C 67.253906 9.921875 67.234375 12.183594 66.15625 14.007812 L 62.324219 20.476562 C 59.054688 25.996094 53.117188 29.382812 46.699219 29.382812 L 11.347656 29.382812 C 9.226562 29.382812 7.269531 28.246094 6.222656 26.402344 C 5.171875 24.5625 5.191406 22.300781 6.269531 20.476562 L 10.101562 14.007812 C 13.371094 8.488281 19.308594 5.101562 25.726562 5.101562 Z M 25.726562 5.101562 " clip-rule="nonzero"/></clipPath><clipPath id="0e7c93f230"><path d="M 13 0 L 20 0 L 20 13 L 13 13 Z M 13 0 " clip-rule="nonzero"/></clipPath><clipPath id="d01bd941ea"><path d="M 12.425781 1.316406 L 16.265625 -0.0078125 L 20.53125 12.355469 L 16.691406 13.683594 Z M 12.425781 1.316406 " clip-rule="nonzero"/></clipPath><clipPath id="5759be861d"><path d="M 16.699219 13.703125 L 20.539062 12.378906 L 16.273438 0.015625 L 12.433594 1.339844 Z M 16.699219 13.703125 " clip-rule="nonzero"/></clipPath><clipPath id="4449be4d9f"><path d="M 14 6 L 16 6 L 16 10 L 14 10 Z M 14 6 " clip-rule="nonzero"/></clipPath><clipPath id="072d54d2ef"><path d="M 14.410156 6.734375 L 15.015625 6.542969 L 16 9.617188 L 15.394531 9.8125 Z M 14.410156 6.734375 " clip-rule="nonzero"/></clipPath></defs><g clip-path="url(#a5f94f9787)"><g clip-path="url(#207d0f2b99)"><path fill="#f4e8d9" d="M 0.996094 5.101562 L 71.464844 5.101562 L 71.464844 29.382812 L 0.996094 29.382812 Z M 0.996094 5.101562 " fill-opacity="1" fill-rule="nonzero"/></g></g><g clip-path="url(#0e7c93f230)"><g clip-path="url(#d01bd941ea)"><g clip-path="url(#5759be861d)"><path fill="#8d7d72" d="M 18.113281 5.699219 C 18.65625 7.273438 19.257812 8.835938 19.746094 10.429688 C 20.125 11.671875 18.691406 13.011719 17.480469 12.296875 C 17.121094 12.085938 16.953125 11.742188 16.820312 11.371094 C 16.578125 10.699219 16.355469 10.023438 16.121094 9.351562 C 15.585938 7.800781 15 6.253906 14.511719 4.6875 C 14.042969 3.171875 16.289062 2.503906 16.894531 3.914062 C 17.527344 5.386719 17.953125 6.980469 18.476562 8.496094 C 18.554688 8.730469 18.195312 8.851562 18.117188 8.621094 L 16.839844 4.917969 C 16.722656 4.578125 16.644531 4.144531 16.433594 3.84375 C 15.894531 3.066406 14.605469 3.660156 14.871094 4.5625 C 15.234375 5.78125 15.707031 6.980469 16.121094 8.179688 C 16.488281 9.246094 16.792969 10.367188 17.234375 11.40625 C 17.644531 12.371094 19.113281 12.234375 19.414062 11.222656 C 19.511719 10.898438 19.441406 10.714844 19.34375 10.425781 L 16.609375 2.503906 C 16.417969 1.945312 16.191406 1.332031 15.601562 1.089844 C 14.929688 0.816406 14.03125 1.1875 13.703125 1.816406 C 13.238281 2.703125 14.046875 4.1875 14.332031 5.023438 L 15.726562 9.0625 C 15.808594 9.292969 15.449219 9.417969 15.367188 9.1875 L 13.839844 4.761719 C 13.527344 3.859375 12.886719 2.664062 13.332031 1.707031 C 13.613281 1.09375 14.304688 0.675781 14.96875 0.625 C 15.828125 0.558594 16.464844 1.121094 16.789062 1.875 C 17.316406 3.105469 17.675781 4.433594 18.113281 5.699219 Z M 18.113281 5.699219 " fill-opacity="1" fill-rule="nonzero"/></g></g></g><g fill="#f4e8d9" fill-opacity="1"><g transform="translate(70.647717, 25.502467)"><g><path d="M 5.921875 -10.5625 C 7.722656 -10.5625 9.078125 -10.003906 9.984375 -8.890625 C 10.898438 -7.785156 11.300781 -6.265625 11.1875 -4.328125 L 3.84375 -4.328125 C 4.007812 -3.703125 4.304688 -3.222656 4.734375 -2.890625 C 5.160156 -2.554688 5.679688 -2.390625 6.296875 -2.390625 C 7.253906 -2.390625 8.085938 -2.742188 8.796875 -3.453125 L 10.5625 -1.71875 C 9.4375 -0.5 7.921875 0.109375 6.015625 0.109375 C 4.316406 0.109375 2.96875 -0.375 1.96875 -1.34375 C 0.96875 -2.3125 0.46875 -3.597656 0.46875 -5.203125 C 0.46875 -6.816406 0.96875 -8.113281 1.96875 -9.09375 C 2.96875 -10.070312 4.285156 -10.5625 5.921875 -10.5625 Z M 3.78125 -6.125 L 7.96875 -6.125 C 7.96875 -6.757812 7.78125 -7.269531 7.40625 -7.65625 C 7.039062 -8.039062 6.554688 -8.234375 5.953125 -8.234375 C 5.378906 -8.234375 4.898438 -8.039062 4.515625 -7.65625 C 4.128906 -7.28125 3.882812 -6.769531 3.78125 -6.125 Z M 3.78125 -6.125 "/></g></g></g><g fill="#f4e8d9" fill-opacity="1"><g transform="translate(81.218184, 25.502467)"><g><path d="M 5.890625 -7.453125 L 7.75 -10.453125 L 11.421875 -10.453125 L 8.109375 -5.375 L 11.65625 0 L 7.796875 0 L 5.890625 -3.28125 L 3.765625 0 L 0.078125 0 L 3.640625 -5.359375 L 0.3125 -10.453125 L 4.15625 -10.453125 Z M 5.890625 -7.453125 "/></g></g></g><g fill="#f4e8d9" fill-opacity="1"><g transform="translate(91.866229, 25.502467)"><g><path d="M 7.421875 -2.890625 L 8.078125 -0.5625 C 7.265625 -0.0820312 6.335938 0.15625 5.296875 0.15625 C 4.265625 0.15625 3.425781 -0.128906 2.78125 -0.703125 C 2.144531 -1.285156 1.828125 -2.101562 1.828125 -3.15625 L 1.828125 -7.78125 L 0.375 -7.78125 L 0.375 -9.96875 L 1.828125 -9.96875 L 1.828125 -12.875 L 5.15625 -12.875 L 5.15625 -9.984375 L 7.890625 -9.984375 L 7.890625 -7.78125 L 5.15625 -7.78125 L 5.15625 -3.6875 C 5.15625 -3.28125 5.234375 -2.984375 5.390625 -2.796875 C 5.554688 -2.609375 5.800781 -2.523438 6.125 -2.546875 C 6.4375 -2.546875 6.867188 -2.660156 7.421875 -2.890625 Z M 7.421875 -2.890625 "/></g></g></g><g fill="#f4e8d9" fill-opacity="1"><g transform="translate(99.198374, 25.502467)"><g/></g></g><g fill="#f4e8d9" fill-opacity="1"><g transform="translate(61.318715, 25.502467)"><g><path d="M 11.734375 -10.796875 L 7.640625 -10.796875 L 7.640625 0 L 4.1875 0 L 4.1875 -10.796875 L 0.140625 -10.796875 L 0.140625 -13.59375 L 11.734375 -13.59375 Z M 11.734375 -10.796875 "/></g></g></g><g fill="#332219" fill-opacity="1"><g transform="translate(10.739543, 24.256977)"><g><path d="M 6.578125 -13.734375 C 8.609375 -13.734375 10.390625 -13.226562 11.921875 -12.21875 L 10.625 -9.515625 C 9.914062 -9.929688 9.148438 -10.269531 8.328125 -10.53125 C 7.515625 -10.800781 6.832031 -10.9375 6.28125 -10.9375 C 5.289062 -10.9375 4.796875 -10.609375 4.796875 -9.953125 C 4.796875 -9.523438 5.039062 -9.179688 5.53125 -8.921875 C 6.019531 -8.660156 6.613281 -8.4375 7.3125 -8.25 C 8.019531 -8.0625 8.722656 -7.832031 9.421875 -7.5625 C 10.128906 -7.300781 10.726562 -6.875 11.21875 -6.28125 C 11.71875 -5.6875 11.96875 -4.9375 11.96875 -4.03125 C 11.96875 -2.726562 11.457031 -1.710938 10.4375 -0.984375 C 9.414062 -0.253906 8.113281 0.109375 6.53125 0.109375 C 5.40625 0.109375 4.289062 -0.0820312 3.1875 -0.46875 C 2.09375 -0.851562 1.140625 -1.382812 0.328125 -2.0625 L 1.671875 -4.71875 C 2.347656 -4.113281 3.148438 -3.617188 4.078125 -3.234375 C 5.015625 -2.859375 5.847656 -2.671875 6.578125 -2.671875 C 7.128906 -2.671875 7.5625 -2.769531 7.875 -2.96875 C 8.1875 -3.175781 8.34375 -3.472656 8.34375 -3.859375 C 8.34375 -4.234375 8.160156 -4.546875 7.796875 -4.796875 C 7.441406 -5.046875 7 -5.234375 6.46875 -5.359375 C 5.945312 -5.484375 5.375 -5.648438 4.75 -5.859375 C 4.125 -6.066406 3.546875 -6.289062 3.015625 -6.53125 C 2.492188 -6.78125 2.050781 -7.171875 1.6875 -7.703125 C 1.332031 -8.242188 1.15625 -8.890625 1.15625 -9.640625 C 1.15625 -10.878906 1.648438 -11.867188 2.640625 -12.609375 C 3.628906 -13.359375 4.941406 -13.734375 6.578125 -13.734375 Z M 6.578125 -13.734375 "/></g></g></g><g fill="#332219" fill-opacity="1"><g transform="translate(22.124622, 24.256977)"><g><path d="M 15.296875 -10.609375 C 16.453125 -10.609375 17.367188 -10.242188 18.046875 -9.515625 C 18.722656 -8.785156 19.0625 -7.8125 19.0625 -6.59375 L 19.0625 0 L 15.71875 0 L 15.71875 -5.65625 C 15.71875 -6.28125 15.554688 -6.769531 15.234375 -7.125 C 14.910156 -7.476562 14.472656 -7.65625 13.921875 -7.65625 C 13.296875 -7.644531 12.800781 -7.410156 12.4375 -6.953125 C 12.070312 -6.492188 11.890625 -5.898438 11.890625 -5.171875 L 11.890625 0 L 8.53125 0 L 8.53125 -5.65625 C 8.53125 -6.28125 8.367188 -6.769531 8.046875 -7.125 C 7.734375 -7.476562 7.300781 -7.65625 6.75 -7.65625 C 6.113281 -7.644531 5.609375 -7.40625 5.234375 -6.9375 C 4.859375 -6.476562 4.671875 -5.890625 4.671875 -5.171875 L 4.671875 0 L 1.34375 0 L 1.34375 -10.453125 L 4.671875 -10.453125 L 4.671875 -8.71875 C 5.378906 -9.945312 6.53125 -10.578125 8.125 -10.609375 C 8.96875 -10.609375 9.695312 -10.394531 10.3125 -9.96875 C 10.925781 -9.550781 11.359375 -8.972656 11.609375 -8.234375 C 12.296875 -9.785156 13.523438 -10.578125 15.296875 -10.609375 Z M 15.296875 -10.609375 "/></g></g></g><g fill="#332219" fill-opacity="1"><g transform="translate(41.132152, 24.256977)"><g><path d="M 6.03125 -10.609375 C 7.46875 -10.609375 8.582031 -10.273438 9.375 -9.609375 C 10.164062 -8.941406 10.570312 -8.015625 10.59375 -6.828125 L 10.59375 0 L 7.3125 0 L 7.3125 -1.203125 C 6.625 -0.296875 5.554688 0.15625 4.109375 0.15625 C 3.015625 0.15625 2.144531 -0.144531 1.5 -0.75 C 0.851562 -1.363281 0.53125 -2.15625 0.53125 -3.125 C 0.53125 -4.113281 0.875 -4.882812 1.5625 -5.4375 C 2.25 -5.988281 3.238281 -6.269531 4.53125 -6.28125 L 7.296875 -6.28125 L 7.296875 -6.4375 C 7.296875 -6.957031 7.125 -7.359375 6.78125 -7.640625 C 6.4375 -7.929688 5.925781 -8.078125 5.25 -8.078125 C 4.3125 -8.078125 3.273438 -7.789062 2.140625 -7.21875 L 1.1875 -9.421875 C 2.875 -10.210938 4.488281 -10.609375 6.03125 -10.609375 Z M 5.140625 -2.109375 C 5.671875 -2.109375 6.132812 -2.238281 6.53125 -2.5 C 6.9375 -2.769531 7.191406 -3.117188 7.296875 -3.546875 L 7.296875 -4.484375 L 5.171875 -4.484375 C 4.171875 -4.484375 3.671875 -4.109375 3.671875 -3.359375 C 3.671875 -2.960938 3.796875 -2.65625 4.046875 -2.4375 C 4.304688 -2.21875 4.671875 -2.109375 5.140625 -2.109375 Z M 5.140625 -2.109375 "/></g></g></g><g fill="#332219" fill-opacity="1"><g transform="translate(51.663826, 24.256977)"><g><path d="M 4.6875 -10.453125 L 4.6875 -8.6875 C 5.425781 -9.9375 6.554688 -10.578125 8.078125 -10.609375 L 8.078125 -7.578125 C 7.128906 -7.671875 6.347656 -7.515625 5.734375 -7.109375 C 5.128906 -6.703125 4.78125 -6.125 4.6875 -5.375 L 4.6875 0 L 1.34375 0 L 1.34375 -10.453125 Z M 4.6875 -10.453125 "/></g></g></g><g fill="#332219" fill-opacity="1"><g transform="translate(58.840071, 24.256977)"><g><path d="M 11.734375 -10.796875 L 7.640625 -10.796875 L 7.640625 0 L 4.1875 0 L 4.1875 -10.796875 L 0.140625 -10.796875 L 0.140625 -13.59375 L 11.734375 -13.59375 Z M 11.734375 -10.796875 "/></g></g></g><g fill="#f4e8d9" fill-opacity="1"><g transform="translate(100.133865, 25.502467)"><g/></g></g><g fill="#f4e8d9" fill-opacity="1"><g transform="translate(103.532211, 25.502467)"><g><path d="M 1.359375 -13.578125 L 7.265625 -13.578125 C 9.003906 -13.578125 10.347656 -13.164062 11.296875 -12.34375 C 12.253906 -11.519531 12.734375 -10.351562 12.734375 -8.84375 C 12.734375 -7.25 12.253906 -6.007812 11.296875 -5.125 C 10.347656 -4.25 9.003906 -3.8125 7.265625 -3.8125 L 4.8125 -3.8125 L 4.8125 0 L 1.359375 0 Z M 4.8125 -10.859375 L 4.8125 -6.53125 L 7.09375 -6.53125 C 7.851562 -6.53125 8.441406 -6.71875 8.859375 -7.09375 C 9.273438 -7.46875 9.484375 -8.007812 9.484375 -8.71875 C 9.484375 -9.414062 9.273438 -9.945312 8.859375 -10.3125 C 8.441406 -10.675781 7.851562 -10.859375 7.09375 -10.859375 Z M 4.8125 -10.859375 "/></g></g></g><g fill="#f4e8d9" fill-opacity="1"><g transform="translate(115.615527, 25.502467)"><g><path d="M 1.359375 -13.578125 L 7.1875 -13.578125 C 9.320312 -13.578125 11.054688 -12.945312 12.390625 -11.6875 C 13.734375 -10.4375 14.40625 -8.800781 14.40625 -6.78125 C 14.40625 -4.78125 13.722656 -3.148438 12.359375 -1.890625 C 11.003906 -0.628906 9.238281 0 7.0625 0 L 1.359375 0 Z M 4.8125 -10.8125 L 4.8125 -2.75 L 7.265625 -2.75 C 8.328125 -2.75 9.195312 -3.117188 9.875 -3.859375 C 10.550781 -4.609375 10.890625 -5.578125 10.890625 -6.765625 C 10.890625 -7.953125 10.535156 -8.921875 9.828125 -9.671875 C 9.117188 -10.429688 8.210938 -10.8125 7.109375 -10.8125 Z M 4.8125 -10.8125 "/></g></g></g><g fill="#f4e8d9" fill-opacity="1"><g transform="translate(129.386256, 25.502467)"><g><path d="M 11.421875 -10.859375 L 4.8125 -10.859375 L 4.8125 -7.71875 L 10.890625 -7.71875 L 10.890625 -5 L 4.8125 -5 L 4.8125 0 L 1.359375 0 L 1.359375 -13.578125 L 11.421875 -13.578125 Z M 11.421875 -10.859375 "/></g></g></g><g fill="#f4e8d9" fill-opacity="1"><g transform="translate(139.995509, 25.502467)"><g><path d="M 1.171875 -2.625 C 1.472656 -2.925781 1.863281 -3.078125 2.34375 -3.078125 C 2.820312 -3.078125 3.210938 -2.925781 3.515625 -2.625 C 3.816406 -2.332031 3.96875 -1.945312 3.96875 -1.46875 C 3.96875 -0.988281 3.816406 -0.597656 3.515625 -0.296875 C 3.210938 0.00390625 2.820312 0.15625 2.34375 0.15625 C 1.863281 0.15625 1.472656 0.00390625 1.171875 -0.296875 C 0.878906 -0.597656 0.734375 -0.988281 0.734375 -1.46875 C 0.734375 -1.945312 0.878906 -2.332031 1.171875 -2.625 Z M 1.171875 -2.625 "/></g></g></g><g clip-path="url(#4449be4d9f)"><g clip-path="url(#072d54d2ef)"><path fill="#332219" d="M 14.410156 6.734375 L 15.015625 6.542969 L 16 9.621094 L 15.394531 9.8125 Z M 14.410156 6.734375 " fill-opacity="1" fill-rule="nonzero"/></g></g><path stroke-linecap="butt" transform="matrix(0.0782185, -0.100039, 0.100039, 0.0782185, 14.530544, 6.69626)" fill="none" stroke-linejoin="miter" d="M 0.0062962 1.993545 L 3.48932 2.003547 " stroke="#332219" stroke-width="4" stroke-opacity="1" stroke-miterlimit="4"/></svg>