<svg xmlns="http://www.w3.org/2000/svg" xmlns:xlink="http://www.w3.org/1999/xlink" width="292" zoomAndPan="magnify" viewBox="0 0 218.87999 48.75" height="65" preserveAspectRatio="xMidYMid meet" version="1.0"><defs><g/><clipPath id="9c702fcc7c"><path d="M 0.5 0 L 218.261719 0 L 218.261719 48.5 L 0.5 48.5 Z M 0.5 0 " clip-rule="nonzero"/></clipPath><clipPath id="0882128211"><path d="M 4.914062 7.195312 L 95.480469 7.195312 L 95.480469 41.445312 L 4.914062 41.445312 Z M 4.914062 7.195312 " clip-rule="nonzero"/></clipPath><clipPath id="ec95df0d5e"><path d="M 31.226562 7.195312 L 89.398438 7.195312 C 91.535156 7.195312 93.511719 8.34375 94.570312 10.203125 C 95.628906 12.0625 95.613281 14.34375 94.523438 16.183594 L 84.886719 32.457031 C 81.585938 38.027344 75.59375 41.445312 69.117188 41.445312 L 10.945312 41.445312 C 8.804688 41.445312 6.832031 40.296875 5.773438 38.4375 C 4.710938 36.578125 4.730469 34.296875 5.820312 32.457031 L 15.457031 16.183594 C 18.757812 10.613281 24.75 7.195312 31.226562 7.195312 Z M 31.226562 7.195312 " clip-rule="nonzero"/></clipPath><clipPath id="9478e5e6dc"><path d="M 17 0 L 28 0 L 28 18 L 17 18 Z M 17 0 " clip-rule="nonzero"/></clipPath><clipPath id="7a6d44c512"><path d="M 16.617188 1.859375 L 22.035156 -0.0117188 L 28.054688 17.429688 L 22.636719 19.300781 Z M 16.617188 1.859375 " clip-rule="nonzero"/></clipPath><clipPath id="e0d57a9446"><path d="M 22.648438 19.332031 L 28.066406 17.460938 L 22.046875 0.0195312 L 16.628906 1.890625 Z M 22.648438 19.332031 " clip-rule="nonzero"/></clipPath><clipPath id="4440687ad3"><path d="M 19 9 L 22 9 L 22 14 L 19 14 Z M 19 9 " clip-rule="nonzero"/></clipPath><clipPath id="5612187352"><path d="M 19.417969 9.5 L 20.269531 9.226562 L 21.660156 13.566406 L 20.804688 13.839844 Z M 19.417969 9.5 " clip-rule="nonzero"/></clipPath></defs><g clip-path="url(#9c702fcc7c)"><path fill="#ffffff" d="M 0.5 0 L 218.382812 0 L 218.382812 48.5 L 0.5 48.5 Z M 0.5 0 " fill-opacity="1" fill-rule="nonzero"/></g><g clip-path="url(#0882128211)"><g clip-path="url(#ec95df0d5e)"><path fill="#f4e8d9" d="M 0.5 7.195312 L 99.898438 7.195312 L 99.898438 41.445312 L 0.5 41.445312 Z M 0.5 7.195312 " fill-opacity="1" fill-rule="nonzero"/></g></g><g clip-path="url(#9478e5e6dc)"><g clip-path="url(#7a6d44c512)"><g clip-path="url(#e0d57a9446)"><path fill="#8d7d72" d="M 24.640625 8.039062 C 25.40625 10.257812 26.253906 12.464844 26.945312 14.710938 C 27.480469 16.460938 25.460938 18.351562 23.75 17.347656 C 23.242188 17.050781 23.003906 16.5625 22.816406 16.039062 C 22.476562 15.09375 22.164062 14.140625 21.835938 13.191406 C 21.078125 11.003906 20.25 8.824219 19.5625 6.609375 C 18.902344 4.472656 22.070312 3.53125 22.925781 5.519531 C 23.816406 7.597656 24.417969 9.847656 25.15625 11.984375 C 25.265625 12.3125 24.761719 12.488281 24.648438 12.160156 L 22.84375 6.9375 C 22.679688 6.460938 22.570312 5.84375 22.273438 5.421875 C 21.515625 4.324219 19.695312 5.164062 20.070312 6.433594 C 20.578125 8.15625 21.246094 9.84375 21.832031 11.539062 C 22.351562 13.042969 22.777344 14.625 23.402344 16.085938 C 23.980469 17.449219 26.050781 17.257812 26.476562 15.828125 C 26.613281 15.375 26.515625 15.113281 26.375 14.707031 L 22.519531 3.535156 C 22.25 2.746094 21.933594 1.882812 21.101562 1.539062 C 20.152344 1.152344 18.882812 1.675781 18.421875 2.558594 C 17.765625 3.816406 18.90625 5.910156 19.308594 7.085938 L 21.277344 12.785156 C 21.390625 13.109375 20.882812 13.285156 20.769531 12.957031 L 18.617188 6.714844 C 18.175781 5.441406 17.273438 3.753906 17.894531 2.40625 C 18.296875 1.546875 19.269531 0.953125 20.207031 0.878906 C 21.417969 0.785156 22.316406 1.582031 22.773438 2.648438 C 23.515625 4.382812 24.027344 6.253906 24.640625 8.039062 Z M 24.640625 8.039062 " fill-opacity="1" fill-rule="nonzero"/></g></g></g><g fill="#f4e8d9" fill-opacity="1"><g transform="translate(98.743273, 35.971768)"><g><path d="M 8.34375 -14.90625 C 10.894531 -14.90625 12.8125 -14.117188 14.09375 -12.546875 C 15.382812 -10.984375 15.945312 -8.832031 15.78125 -6.09375 L 5.421875 -6.09375 C 5.648438 -5.21875 6.066406 -4.539062 6.671875 -4.0625 C 7.273438 -3.59375 8.015625 -3.359375 8.890625 -3.359375 C 10.242188 -3.359375 11.421875 -3.863281 12.421875 -4.875 L 14.90625 -2.4375 C 13.320312 -0.695312 11.179688 0.171875 8.484375 0.171875 C 6.085938 0.171875 4.179688 -0.507812 2.765625 -1.875 C 1.359375 -3.25 0.65625 -5.066406 0.65625 -7.328125 C 0.65625 -9.609375 1.359375 -11.441406 2.765625 -12.828125 C 4.179688 -14.210938 6.039062 -14.90625 8.34375 -14.90625 Z M 5.328125 -8.640625 L 11.25 -8.640625 C 11.25 -9.535156 10.988281 -10.253906 10.46875 -10.796875 C 9.945312 -11.347656 9.257812 -11.625 8.40625 -11.625 C 7.601562 -11.625 6.925781 -11.351562 6.375 -10.8125 C 5.820312 -10.28125 5.472656 -9.554688 5.328125 -8.640625 Z M 5.328125 -8.640625 "/></g></g></g><g fill="#f4e8d9" fill-opacity="1"><g transform="translate(113.653138, 35.971768)"><g><path d="M 8.3125 -10.5 L 10.9375 -14.75 L 16.109375 -14.75 L 11.4375 -7.578125 L 16.4375 0 L 11 0 L 8.3125 -4.625 L 5.3125 0 L 0.109375 0 L 5.140625 -7.546875 L 0.4375 -14.75 L 5.859375 -14.75 Z M 8.3125 -10.5 "/></g></g></g><g fill="#f4e8d9" fill-opacity="1"><g transform="translate(128.672429, 35.971768)"><g><path d="M 10.484375 -4.078125 L 11.40625 -0.796875 C 10.257812 -0.117188 8.945312 0.21875 7.46875 0.21875 C 6.007812 0.21875 4.828125 -0.1875 3.921875 -1 C 3.023438 -1.8125 2.578125 -2.960938 2.578125 -4.453125 L 2.578125 -10.96875 L 0.515625 -10.96875 L 0.515625 -14.0625 L 2.578125 -14.0625 L 2.578125 -18.171875 L 7.28125 -18.171875 L 7.28125 -14.09375 L 11.140625 -14.09375 L 11.140625 -10.96875 L 7.28125 -10.96875 L 7.28125 -5.203125 C 7.28125 -4.628906 7.394531 -4.210938 7.625 -3.953125 C 7.851562 -3.691406 8.191406 -3.566406 8.640625 -3.578125 C 9.078125 -3.578125 9.691406 -3.742188 10.484375 -4.078125 Z M 10.484375 -4.078125 "/></g></g></g><g fill="#f4e8d9" fill-opacity="1"><g transform="translate(139.014573, 35.971768)"><g/></g></g><g fill="#f4e8d9" fill-opacity="1"><g transform="translate(85.58452, 35.971768)"><g><path d="M 16.546875 -15.234375 L 10.78125 -15.234375 L 10.78125 0 L 5.90625 0 L 5.90625 -15.234375 L 0.1875 -15.234375 L 0.1875 -19.171875 L 16.546875 -19.171875 Z M 16.546875 -15.234375 "/></g></g></g><g fill="#332219" fill-opacity="1"><g transform="translate(14.241533, 34.214978)"><g><path d="M 9.28125 -19.375 C 12.132812 -19.375 14.648438 -18.660156 16.828125 -17.234375 L 15 -13.4375 C 13.988281 -14.019531 12.910156 -14.5 11.765625 -14.875 C 10.617188 -15.25 9.648438 -15.4375 8.859375 -15.4375 C 7.453125 -15.4375 6.75 -14.96875 6.75 -14.03125 C 6.75 -13.425781 7.097656 -12.941406 7.796875 -12.578125 C 8.492188 -12.210938 9.335938 -11.898438 10.328125 -11.640625 C 11.316406 -11.378906 12.304688 -11.0625 13.296875 -10.6875 C 14.296875 -10.3125 15.140625 -9.703125 15.828125 -8.859375 C 16.523438 -8.023438 16.875 -6.96875 16.875 -5.6875 C 16.875 -3.84375 16.15625 -2.40625 14.71875 -1.375 C 13.28125 -0.34375 11.445312 0.171875 9.21875 0.171875 C 7.632812 0.171875 6.066406 -0.101562 4.515625 -0.65625 C 2.960938 -1.207031 1.613281 -1.957031 0.46875 -2.90625 L 2.359375 -6.640625 C 3.316406 -5.804688 4.453125 -5.117188 5.765625 -4.578125 C 7.085938 -4.046875 8.257812 -3.78125 9.28125 -3.78125 C 10.0625 -3.78125 10.671875 -3.921875 11.109375 -4.203125 C 11.546875 -4.484375 11.765625 -4.894531 11.765625 -5.4375 C 11.765625 -5.96875 11.515625 -6.410156 11.015625 -6.765625 C 10.515625 -7.128906 9.890625 -7.394531 9.140625 -7.5625 C 8.390625 -7.738281 7.578125 -7.972656 6.703125 -8.265625 C 5.828125 -8.554688 5.015625 -8.875 4.265625 -9.21875 C 3.515625 -9.5625 2.890625 -10.113281 2.390625 -10.875 C 1.890625 -11.632812 1.640625 -12.539062 1.640625 -13.59375 C 1.640625 -15.34375 2.335938 -16.742188 3.734375 -17.796875 C 5.128906 -18.847656 6.976562 -19.375 9.28125 -19.375 Z M 9.28125 -19.375 "/></g></g></g><g fill="#332219" fill-opacity="1"><g transform="translate(30.300426, 34.214978)"><g><path d="M 21.59375 -14.96875 C 23.207031 -14.96875 24.492188 -14.453125 25.453125 -13.421875 C 26.410156 -12.390625 26.890625 -11.015625 26.890625 -9.296875 L 26.890625 0 L 22.1875 0 L 22.1875 -7.984375 C 22.1875 -8.859375 21.957031 -9.546875 21.5 -10.046875 C 21.050781 -10.554688 20.429688 -10.8125 19.640625 -10.8125 C 18.765625 -10.789062 18.066406 -10.457031 17.546875 -9.8125 C 17.023438 -9.164062 16.765625 -8.332031 16.765625 -7.3125 L 16.765625 0 L 12.03125 0 L 12.03125 -7.984375 C 12.03125 -8.859375 11.804688 -9.546875 11.359375 -10.046875 C 10.921875 -10.554688 10.304688 -10.8125 9.515625 -10.8125 C 8.628906 -10.789062 7.921875 -10.453125 7.390625 -9.796875 C 6.859375 -9.140625 6.59375 -8.3125 6.59375 -7.3125 L 6.59375 0 L 1.890625 0 L 1.890625 -14.75 L 6.59375 -14.75 L 6.59375 -12.3125 C 7.59375 -14.039062 9.21875 -14.925781 11.46875 -14.96875 C 12.644531 -14.96875 13.664062 -14.671875 14.53125 -14.078125 C 15.40625 -13.484375 16.023438 -12.664062 16.390625 -11.625 C 17.359375 -13.8125 19.09375 -14.925781 21.59375 -14.96875 Z M 21.59375 -14.96875 "/></g></g></g><g fill="#332219" fill-opacity="1"><g transform="translate(57.110947, 34.214978)"><g><path d="M 8.515625 -14.96875 C 10.535156 -14.96875 12.101562 -14.492188 13.21875 -13.546875 C 14.34375 -12.609375 14.914062 -11.300781 14.9375 -9.625 L 14.9375 0 L 10.3125 0 L 10.3125 -1.703125 C 9.34375 -0.421875 7.835938 0.21875 5.796875 0.21875 C 4.242188 0.21875 3.007812 -0.207031 2.09375 -1.0625 C 1.1875 -1.925781 0.734375 -3.039062 0.734375 -4.40625 C 0.734375 -5.8125 1.222656 -6.898438 2.203125 -7.671875 C 3.179688 -8.453125 4.582031 -8.847656 6.40625 -8.859375 L 10.28125 -8.859375 L 10.28125 -9.078125 C 10.28125 -9.804688 10.039062 -10.375 9.5625 -10.78125 C 9.082031 -11.195312 8.367188 -11.40625 7.421875 -11.40625 C 6.085938 -11.40625 4.617188 -10.992188 3.015625 -10.171875 L 1.671875 -13.296875 C 4.054688 -14.410156 6.335938 -14.96875 8.515625 -14.96875 Z M 7.25 -2.984375 C 8 -2.984375 8.65625 -3.171875 9.21875 -3.546875 C 9.78125 -3.921875 10.132812 -4.40625 10.28125 -5 L 10.28125 -6.3125 L 7.3125 -6.3125 C 5.882812 -6.3125 5.171875 -5.785156 5.171875 -4.734375 C 5.171875 -4.179688 5.351562 -3.75 5.71875 -3.4375 C 6.082031 -3.132812 6.59375 -2.984375 7.25 -2.984375 Z M 7.25 -2.984375 "/></g></g></g><g fill="#332219" fill-opacity="1"><g transform="translate(71.966093, 34.214978)"><g><path d="M 6.625 -14.75 L 6.625 -12.25 C 7.664062 -14.019531 9.257812 -14.925781 11.40625 -14.96875 L 11.40625 -10.703125 C 10.0625 -10.828125 8.957031 -10.601562 8.09375 -10.03125 C 7.238281 -9.457031 6.75 -8.640625 6.625 -7.578125 L 6.625 0 L 1.890625 0 L 1.890625 -14.75 Z M 6.625 -14.75 "/></g></g></g><g fill="#332219" fill-opacity="1"><g transform="translate(82.088338, 34.214978)"><g><path d="M 16.546875 -15.234375 L 10.78125 -15.234375 L 10.78125 0 L 5.90625 0 L 5.90625 -15.234375 L 0.1875 -15.234375 L 0.1875 -19.171875 L 16.546875 -19.171875 Z M 16.546875 -15.234375 "/></g></g></g><g fill="#f4e8d9" fill-opacity="1"><g transform="translate(140.334107, 35.971768)"><g/></g></g><g fill="#f4e8d9" fill-opacity="1"><g transform="translate(145.127546, 35.971768)"><g><path d="M 1.921875 -19.15625 L 10.265625 -19.15625 C 12.703125 -19.15625 14.59375 -18.570312 15.9375 -17.40625 C 17.289062 -16.25 17.96875 -14.601562 17.96875 -12.46875 C 17.96875 -10.226562 17.289062 -8.488281 15.9375 -7.25 C 14.59375 -6.007812 12.703125 -5.390625 10.265625 -5.390625 L 6.78125 -5.390625 L 6.78125 0 L 1.921875 0 Z M 6.78125 -15.328125 L 6.78125 -9.21875 L 10.015625 -9.21875 C 11.085938 -9.21875 11.914062 -9.484375 12.5 -10.015625 C 13.082031 -10.546875 13.375 -11.3125 13.375 -12.3125 C 13.375 -13.300781 13.082031 -14.050781 12.5 -14.5625 C 11.914062 -15.070312 11.085938 -15.328125 10.015625 -15.328125 Z M 6.78125 -15.328125 "/></g></g></g><g fill="#f4e8d9" fill-opacity="1"><g transform="translate(162.171316, 35.971768)"><g><path d="M 1.921875 -19.15625 L 10.15625 -19.15625 C 13.164062 -19.15625 15.613281 -18.269531 17.5 -16.5 C 19.382812 -14.726562 20.328125 -12.421875 20.328125 -9.578125 C 20.328125 -6.742188 19.367188 -4.4375 17.453125 -2.65625 C 15.535156 -0.882812 13.035156 0 9.953125 0 L 1.921875 0 Z M 6.78125 -15.265625 L 6.78125 -3.890625 L 10.265625 -3.890625 C 11.753906 -3.890625 12.976562 -4.410156 13.9375 -5.453125 C 14.894531 -6.503906 15.375 -7.867188 15.375 -9.546875 C 15.375 -11.222656 14.867188 -12.59375 13.859375 -13.65625 C 12.859375 -14.726562 11.585938 -15.265625 10.046875 -15.265625 Z M 6.78125 -15.265625 "/></g></g></g><g fill="#f4e8d9" fill-opacity="1"><g transform="translate(181.595219, 35.971768)"><g><path d="M 16.109375 -15.328125 L 6.78125 -15.328125 L 6.78125 -10.890625 L 15.375 -10.890625 L 15.375 -7.0625 L 6.78125 -7.0625 L 6.78125 0 L 1.921875 0 L 1.921875 -19.15625 L 16.109375 -19.15625 Z M 16.109375 -15.328125 "/></g></g></g><g clip-path="url(#4440687ad3)"><g clip-path="url(#5612187352)"><path fill="#332219" d="M 19.417969 9.5 L 20.269531 9.226562 L 21.660156 13.570312 L 20.804688 13.84375 Z M 19.417969 9.5 " fill-opacity="1" fill-rule="nonzero"/></g></g><path stroke-linecap="butt" transform="matrix(0.110329, -0.141107, 0.141107, 0.110329, 19.588819, 9.445218)" fill="none" stroke-linejoin="miter" d="M 0.00818068 1.994028 L 3.50271 2.00233 " stroke="#332219" stroke-width="4" stroke-opacity="1" stroke-miterlimit="4"/></svg>